<?xml version="1.0" encoding="UTF-8"?>
<svg version="1.1" xmlns:xlink="http://www.w3.org/1999/xlink" width="315pt" xmlns="http://www.w3.org/2000/svg" xmlns:inkscape="http://www.inkscape.org/namespaces/inkscape" viewBox="0 0 315 249" height="249pt">
 <title>Fischer projection of D- and L-Glucose.eps</title>
 <defs>
  <clipPath id="Clip0">
   <path d="M0 0 L306.123 0 L306.123 240.8 L0 240.8 L0 0 Z"/>
  </clipPath>
 </defs>
 <g id="Hintergrund" inkscape:label="Hintergrund" inkscape:groupmode="layer">
  <g style="fill:none; stroke:none" clip-rule="evenodd" clip-path="url(#Clip0)" id="Gruppe11" transform="translate(4.11641, 5.15) scale(1, 1)">
   <path style="fill:#000000; fill-rule:nonzero;stroke:none;" d="M0 0 L1.7 1 L1.7 39.35 L0.85 40.2 L0 39.35 " transform="translate(63.5336, 27.9)"/>
   <path style="fill:#000000; fill-rule:nonzero;stroke:none;" d="M8.42187 0 C3.40625 0 0 3.67188 0 9.01562 C0 14.375 3.375 18 8.45312 18 C10.5781 18 12.4531 17.3594 13.875 16.1562 C15.7656 14.5938 16.8906 11.9375 16.8906 9.15625 C16.8906 3.64062 13.5625 0 8.42187 0 Z M8.42187 1.96875 C12.2187 1.96875 14.6562 4.76562 14.6562 9.10938 C14.6562 13.2344 12.1406 16.0469 8.45312 16.0469 C4.70312 16.0469 2.23438 13.2344 2.23438 9.01562 C2.23438 4.79688 4.70312 1.96875 8.42187 1.96875 Z" transform="translate(21.5898, 0)"/>
   <path style="fill:#000000; fill-rule:nonzero;stroke:none;" d="M0 1.5 L0.85 0 L26.95 15.05 L26.05 16.55 L0 1.5 Z" transform="translate(37.8836, 16.05)"/>
   <path style="fill:#000000; fill-rule:nonzero;stroke:none;" d="M0 1.5 L0.85 0 L26.95 15.05 L26.1 16.55 L0 1.5 Z" transform="translate(40.8336, 10.9)"/>
   <path style="fill:#000000; fill-rule:nonzero;stroke:none;" d="M11.2344 9.96875 L11.2344 18 L13.4688 18 L13.4688 0 L11.2344 0 L11.2344 8 L2.23438 8 L2.23438 0 L0 0 L0 18 L2.23438 18 L2.23438 9.96875 L11.2344 9.96875 Z" transform="translate(92.068, 0)"/>
   <path style="fill:#000000; fill-rule:nonzero;stroke:none;" d="M24.55 0 L25.4 1.45 L1.7 15.15 L0 14.15 L24.55 0 Z" transform="translate(63.5336, 13.75)"/>
   <g style="fill:none; stroke:none" id="Gruppe1" transform="translate(95.6398, 59.55) scale(1, 1)">
    <path style="fill:#000000; fill-rule:nonzero;stroke:none;" d="M8.42188 0 C3.40625 0 0 3.67188 0 9.01562 C0 14.375 3.375 18 8.45312 18 C10.5781 18 12.4531 17.3594 13.875 16.1562 C15.7656 14.5938 16.8906 11.9375 16.8906 9.15625 C16.8906 3.64062 13.5625 0 8.42188 0 Z M8.42188 1.96875 C12.2188 1.96875 14.6562 4.76562 14.6562 9.10938 C14.6562 13.2344 12.1406 16.0469 8.45312 16.0469 C4.70312 16.0469 2.23438 13.2344 2.23438 9.01562 C2.23438 4.79688 4.70312 1.96875 8.42188 1.96875 Z" transform="translate(0, 0)"/>
    <path style="fill:#000000; fill-rule:nonzero;stroke:none;" d="M11.2344 9.96875 L11.2344 18 L13.4688 18 L13.4688 0 L11.2344 0 L11.2344 8 L2.23438 8 L2.23438 0 L0 0 L0 18 L2.23438 18 L2.23438 9.96875 L11.2344 9.96875 Z" transform="translate(19.7501, 0)"/>
   </g>
   <path style="fill:#000000; fill-rule:nonzero;stroke:none;" d="M29.3 0 L29.3 1.7 L0.85 1.7 L0 0.85 L0.85 0 " transform="translate(64.3836, 67.25)"/>
   <path style="fill:#000000; fill-rule:nonzero;stroke:none;" d="M11.2344 9.96875 L11.2344 18 L13.4688 18 L13.4688 0 L11.2344 0 L11.2344 8 L2.23438 8 L2.23438 0 L0 0 L0 18 L2.23438 18 L2.23438 9.96875 L11.2344 9.96875 Z" transform="translate(18.018, 59.55)"/>
   <path style="fill:#000000; fill-rule:nonzero;stroke:none;" d="M0 1.7 L0 0 L29.9 0 L30.75 0.85 L29.9 1.7 " transform="translate(33.6336, 67.25)"/>
   <path style="fill:#000000; fill-rule:nonzero;stroke:none;" d="M1.7 38.85 L0.85 39.7 L0 38.85 L0 0.85 L0.85 0 L1.7 0.85 " transform="translate(63.5336, 68.1)"/>
   <path style="fill:#000000; fill-rule:nonzero;stroke:none;" d="M1.7 38.8 L0.85 39.65 L0 38.8 L0 0.85 L0.85 0 L1.7 0.85 " transform="translate(63.5336, 107.8)"/>
   <path style="fill:#000000; fill-rule:nonzero;stroke:none;" d="M11.2344 9.96875 L11.2344 18 L13.4688 18 L13.4688 0 L11.2344 0 L11.2344 8 L2.23438 8 L2.23438 0 L0 0 L0 18 L2.23438 18 L2.23438 9.96875 L11.2344 9.96875 Z" transform="translate(97.368, 99.25)"/>
   <path style="fill:#000000; fill-rule:nonzero;stroke:none;" d="M30.7 0 L30.7 1.7 L0.85 1.7 L0 0.85 L0.85 0 " transform="translate(64.3836, 106.95)"/>
   <g style="fill:none; stroke:none" id="Gruppe2" transform="translate(0, 99.25) scale(1, 1)">
    <path style="fill:#000000; fill-rule:nonzero;stroke:none;" d="M11.2344 9.96875 L11.2344 18 L13.4688 18 L13.4688 0 L11.2344 0 L11.2344 8 L2.23438 8 L2.23438 0 L0 0 L0 18 L2.23438 18 L2.23438 9.96875 L11.2344 9.96875 Z" transform="translate(0, 0)"/>
    <path style="fill:#000000; fill-rule:nonzero;stroke:none;" d="M8.42188 0 C3.40625 0 0 3.67188 0 9.01562 C0 14.375 3.375 18 8.45312 18 C10.5781 18 12.4531 17.3594 13.875 16.1562 C15.7656 14.5938 16.8906 11.9375 16.8906 9.15625 C16.8906 3.64062 13.5625 0 8.42188 0 Z M8.42188 1.96875 C12.2188 1.96875 14.6563 4.76562 14.6563 9.10938 C14.6563 13.2344 12.1406 16.0469 8.45312 16.0469 C4.70312 16.0469 2.23438 13.2344 2.23438 9.01562 C2.23438 4.79688 4.70312 1.96875 8.42188 1.96875 Z" transform="translate(16.2499, 0)"/>
   </g>
   <path style="fill:#000000; fill-rule:nonzero;stroke:none;" d="M0 1.7 L0 0 L28.35 0 L29.2 0.85 L28.35 1.7 " transform="translate(35.1836, 106.95)"/>
   <g style="fill:none; stroke:none" id="Gruppe3" transform="translate(95.6398, 138.9) scale(1, 1)">
    <path style="fill:#000000; fill-rule:nonzero;stroke:none;" d="M8.42188 0 C3.40625 0 0 3.67188 0 9.01562 C0 14.375 3.375 18 8.45312 18 C10.5781 18 12.4531 17.3594 13.875 16.1562 C15.7656 14.5938 16.8906 11.9375 16.8906 9.15625 C16.8906 3.64062 13.5625 0 8.42188 0 Z M8.42188 1.96875 C12.2188 1.96875 14.6562 4.76562 14.6562 9.10938 C14.6562 13.2344 12.1406 16.0469 8.45312 16.0469 C4.70312 16.0469 2.23438 13.2344 2.23438 9.01562 C2.23438 4.79688 4.70312 1.96875 8.42188 1.96875 Z" transform="translate(0, 0)"/>
    <path style="fill:#000000; fill-rule:nonzero;stroke:none;" d="M11.2344 9.96875 L11.2344 18 L13.4688 18 L13.4688 0 L11.2344 0 L11.2344 8 L2.23438 8 L2.23438 0 L0 0 L0 18 L2.23438 18 L2.23438 9.96875 L11.2344 9.96875 Z" transform="translate(19.7501, 0)"/>
   </g>
   <path style="fill:#000000; fill-rule:nonzero;stroke:none;" d="M29.3 0 L29.3 1.7 L0.85 1.7 L0 0.85 L0.85 0 " transform="translate(64.3836, 146.6)"/>
   <path style="fill:#000000; fill-rule:nonzero;stroke:none;" d="M11.2344 9.96875 L11.2344 18 L13.4688 18 L13.4688 0 L11.2344 0 L11.2344 8 L2.23438 8 L2.23438 0 L0 0 L0 18 L2.23438 18 L2.23438 9.96875 L11.2344 9.96875 Z" transform="translate(18.018, 138.9)"/>
   <path style="fill:#000000; fill-rule:nonzero;stroke:none;" d="M0 1.7 L0 0 L29.9 0 L30.75 0.85 L29.9 1.7 " transform="translate(33.6336, 146.6)"/>
   <path style="fill:#000000; fill-rule:nonzero;stroke:none;" d="M1.7 38.85 L0.85 39.7 L0 38.85 L0 0.85 L0.85 0 L1.7 0.85 " transform="translate(63.5336, 147.45)"/>
   <g style="fill:none; stroke:none" id="Gruppe4" transform="translate(95.6398, 178.6) scale(1, 1)">
    <path style="fill:#000000; fill-rule:nonzero;stroke:none;" d="M8.42188 0 C3.40625 0 0 3.67188 0 9.01562 C0 14.375 3.375 18 8.45312 18 C10.5781 18 12.4531 17.3594 13.875 16.1562 C15.7656 14.5938 16.8906 11.9375 16.8906 9.15625 C16.8906 3.64062 13.5625 0 8.42188 0 Z M8.42188 1.96875 C12.2188 1.96875 14.6562 4.76562 14.6562 9.10938 C14.6562 13.2344 12.1406 16.0469 8.45312 16.0469 C4.70312 16.0469 2.23438 13.2344 2.23438 9.01562 C2.23438 4.79688 4.70312 1.96875 8.42188 1.96875 Z" transform="translate(0, 0)"/>
    <path style="fill:#000000; fill-rule:nonzero;stroke:none;" d="M11.2344 9.96875 L11.2344 18 L13.4688 18 L13.4688 0 L11.2344 0 L11.2344 8 L2.23438 8 L2.23438 0 L0 0 L0 18 L2.23438 18 L2.23438 9.96875 L11.2344 9.96875 Z" transform="translate(19.7501, 0)"/>
   </g>
   <path style="fill:#000000; fill-rule:nonzero;stroke:none;" d="M29.3 0 L29.3 1.7 L0.85 1.7 L0 0.85 L0.85 0 " transform="translate(64.3836, 186.3)"/>
   <path style="fill:#000000; fill-rule:nonzero;stroke:none;" d="M11.2344 9.96875 L11.2344 18 L13.4688 18 L13.4688 0 L11.2344 0 L11.2344 8 L2.23438 8 L2.23438 0 L0 0 L0 18 L2.23438 18 L2.23438 9.96875 L11.2344 9.96875 Z" transform="translate(18.018, 178.6)"/>
   <path style="fill:#000000; fill-rule:nonzero;stroke:none;" d="M0 1.7 L0 0 L29.9 0 L30.75 0.85 L29.9 1.7 " transform="translate(33.6336, 186.3)"/>
   <g style="fill:none; stroke:none" id="Gruppe5" transform="translate(56.8742, 218.3) scale(1, 1)">
    <path style="fill:#000000; fill-rule:nonzero;stroke:none;" d="M14.7344 5.64062 C14.0469 1.875 11.8438 0 8 0 C5.64062 0 3.75 0.75 2.45312 2.1875 C0.875 3.875 0 6.3125 0 9.07812 C0 11.8906 0.890625 14.3125 2.53125 15.9688 C3.89062 17.3594 5.625 18 7.90625 18 C12.1719 18 14.5781 15.7188 15.0938 11.1875 L12.7969 11.1875 C12.6094 12.3594 12.3594 13.1562 12 13.8438 C11.2812 15.25 9.79688 16.0469 7.92188 16.0469 C4.4375 16.0469 2.23438 13.3281 2.23438 9.0625 C2.23438 4.67188 4.32812 1.96875 7.73438 1.96875 C9.15625 1.96875 10.4688 2.375 11.1875 3.0625 C11.8438 3.64062 12.2031 4.34375 12.4531 5.64062 L14.7344 5.64062 Z" transform="translate(0, 0)"/>
    <path style="fill:#000000; fill-rule:nonzero;stroke:none;" d="M11.2344 9.96875 L11.2344 18 L13.4688 18 L13.4688 0 L11.2344 0 L11.2344 8 L2.23438 8 L2.23438 0 L0 0 L0 18 L2.23438 18 L2.23438 9.96875 L11.2344 9.96875 Z" transform="translate(18.1718, 0)"/>
    <path style="fill:#000000; fill-rule:nonzero;stroke:none;" d="M8.5 11.4531 L1.78125 11.4531 C1.9375 10.375 2.51562 9.6875 4.07812 8.73438 L5.875 7.73438 C7.67188 6.73438 8.57812 5.40625 8.57812 3.8125 C8.57812 2.73438 8.15625 1.71875 7.39062 1.01562 C6.64062 0.328125 5.70312 0 4.5 0 C2.875 0 1.67188 0.578125 0.96875 1.70312 C0.515625 2.39062 0.3125 3.1875 0.28125 4.51562 L1.875 4.51562 C1.92188 3.625 2.03125 3.10938 2.25 2.67188 C2.65625 1.875 3.48438 1.39062 4.4375 1.39062 C5.875 1.39062 6.96875 2.4375 6.96875 3.84375 C6.96875 4.89062 6.375 5.78125 5.23438 6.4375 L3.57812 7.40625 C0.90625 8.9375 0.140625 10.1562 0 13 L8.5 13 L8.5 11.4531 Z" transform="translate(34.1247, 9.5)"/>
    <path style="fill:#000000; fill-rule:nonzero;stroke:none;" d="M8.42188 0 C3.40625 0 0 3.67188 0 9.01562 C0 14.375 3.375 18 8.45312 18 C10.5781 18 12.4531 17.3594 13.875 16.1562 C15.7656 14.5938 16.8906 11.9375 16.8906 9.15625 C16.8906 3.64062 13.5625 0 8.42188 0 Z M8.42188 1.96875 C12.2188 1.96875 14.6562 4.76562 14.6562 9.10938 C14.6562 13.2344 12.1406 16.0469 8.45312 16.0469 C4.70312 16.0469 2.23438 13.2344 2.23438 9.01562 C2.23438 4.79688 4.70312 1.96875 8.42188 1.96875 Z" transform="translate(44.4293, 0)"/>
    <path style="fill:#000000; fill-rule:nonzero;stroke:none;" d="M11.2344 9.96875 L11.2344 18 L13.4688 18 L13.4688 0 L11.2344 0 L11.2344 8 L2.23438 8 L2.23438 0 L0 0 L0 18 L2.23438 18 L2.23438 9.96875 L11.2344 9.96875 Z" transform="translate(64.1795, 0)"/>
   </g>
   <path style="fill:#000000; fill-rule:nonzero;stroke:none;" d="M1.7 29.4 L0 29.4 L0 0.85 L0.85 0 L1.7 0.85 " transform="translate(63.5336, 187.15)"/>
   <path style="fill:#000000; fill-rule:nonzero;stroke:none;" d="M0 0 L1.75 1 L1.75 39.35 L0.9 40.2 L0 39.35 " transform="translate(235.134, 27.9)"/>
   <path style="fill:#000000; fill-rule:nonzero;stroke:none;" d="M8.42188 0 C3.40625 0 0 3.67188 0 9.01562 C0 14.375 3.375 18 8.45312 18 C10.5781 18 12.4531 17.3594 13.875 16.1562 C15.7656 14.5938 16.8906 11.9375 16.8906 9.15625 C16.8906 3.64062 13.5625 0 8.42188 0 Z M8.42188 1.96875 C12.2188 1.96875 14.6562 4.76562 14.6562 9.10938 C14.6562 13.2344 12.1406 16.0469 8.45312 16.0469 C4.70312 16.0469 2.23438 13.2344 2.23438 9.01562 C2.23438 4.79688 4.70312 1.96875 8.42188 1.96875 Z" transform="translate(193.24, 0)"/>
   <path style="fill:#000000; fill-rule:nonzero;stroke:none;" d="M0 1.5 L0.85 0 L26.95 15.05 L26.1 16.55 L0 1.5 Z" transform="translate(209.484, 16.05)"/>
   <path style="fill:#000000; fill-rule:nonzero;stroke:none;" d="M0 1.5 L0.85 0 L26.95 15.05 L26.1 16.55 L0 1.5 Z" transform="translate(212.484, 10.9)"/>
   <path style="fill:#000000; fill-rule:nonzero;stroke:none;" d="M11.2344 9.96875 L11.2344 18 L13.4688 18 L13.4688 0 L11.2344 0 L11.2344 8 L2.23438 8 L2.23438 0 L0 0 L0 18 L2.23438 18 L2.23438 9.96875 L11.2344 9.96875 Z" transform="translate(263.668, 0)"/>
   <path style="fill:#000000; fill-rule:nonzero;stroke:none;" d="M24.6 0 L25.45 1.45 L1.75 15.15 L0 14.15 L24.6 0 Z" transform="translate(235.134, 13.75)"/>
   <path style="fill:#000000; fill-rule:nonzero;stroke:none;" d="M11.2344 9.96875 L11.2344 18 L13.4688 18 L13.4688 0 L11.2344 0 L11.2344 8 L2.23438 8 L2.23438 0 L0 0 L0 18 L2.23438 18 L2.23438 9.96875 L11.2344 9.96875 Z" transform="translate(269.018, 59.55)"/>
   <path style="fill:#000000; fill-rule:nonzero;stroke:none;" d="M30.65 0 L30.65 1.7 L0.85 1.7 L0 0.85 L0.85 0 " transform="translate(236.034, 67.25)"/>
   <g style="fill:none; stroke:none" id="Gruppe6" transform="translate(171.6, 59.55) scale(1, 1)">
    <path style="fill:#000000; fill-rule:nonzero;stroke:none;" d="M11.2344 9.96875 L11.2344 18 L13.4688 18 L13.4688 0 L11.2344 0 L11.2344 8 L2.23438 8 L2.23438 0 L0 0 L0 18 L2.23438 18 L2.23438 9.96875 L11.2344 9.96875 Z" transform="translate(0, 0)"/>
    <path style="fill:#000000; fill-rule:nonzero;stroke:none;" d="M8.42188 0 C3.40625 0 0 3.67188 0 9.01562 C0 14.375 3.375 18 8.45312 18 C10.5781 18 12.4531 17.3594 13.875 16.1562 C15.7656 14.5938 16.8906 11.9375 16.8906 9.15625 C16.8906 3.64062 13.5625 0 8.42188 0 Z M8.42188 1.96875 C12.2188 1.96875 14.6562 4.76562 14.6562 9.10938 C14.6562 13.2344 12.1406 16.0469 8.45312 16.0469 C4.70312 16.0469 2.23438 13.2344 2.23438 9.01562 C2.23438 4.79688 4.70312 1.96875 8.42188 1.96875 Z" transform="translate(16.2499, 0)"/>
   </g>
   <path style="fill:#000000; fill-rule:nonzero;stroke:none;" d="M0 1.7 L0 0 L28.35 0 L29.25 0.85 L28.35 1.7 " transform="translate(206.784, 67.25)"/>
   <path style="fill:#000000; fill-rule:nonzero;stroke:none;" d="M1.75 38.85 L0.9 39.7 L0 38.85 L0 0.85 L0.9 0 L1.75 0.85 " transform="translate(235.134, 68.1)"/>
   <path style="fill:#000000; fill-rule:nonzero;stroke:none;" d="M1.75 38.8 L0.9 39.65 L0 38.8 L0 0.85 L0.9 0 L1.75 0.85 " transform="translate(235.134, 107.8)"/>
   <g style="fill:none; stroke:none" id="Gruppe7" transform="translate(267.29, 99.25) scale(1, 1)">
    <path style="fill:#000000; fill-rule:nonzero;stroke:none;" d="M8.42188 0 C3.40625 0 0 3.67188 0 9.01562 C0 14.375 3.375 18 8.45312 18 C10.5781 18 12.4531 17.3594 13.875 16.1562 C15.7656 14.5938 16.8906 11.9375 16.8906 9.15625 C16.8906 3.64062 13.5625 0 8.42188 0 Z M8.42188 1.96875 C12.2188 1.96875 14.6562 4.76562 14.6562 9.10938 C14.6562 13.2344 12.1406 16.0469 8.45312 16.0469 C4.70312 16.0469 2.23438 13.2344 2.23438 9.01562 C2.23438 4.79688 4.70312 1.96875 8.42188 1.96875 Z" transform="translate(0, 0)"/>
    <path style="fill:#000000; fill-rule:nonzero;stroke:none;" d="M11.2344 9.96875 L11.2344 18 L13.4688 18 L13.4688 0 L11.2344 0 L11.2344 8 L2.23438 8 L2.23438 0 L0 0 L0 18 L2.23438 18 L2.23438 9.96875 L11.2344 9.96875 Z" transform="translate(19.7501, 0)"/>
   </g>
   <path style="fill:#000000; fill-rule:nonzero;stroke:none;" d="M29.25 0 L29.25 1.7 L0.85 1.7 L0 0.85 L0.85 0 " transform="translate(236.034, 106.95)"/>
   <path style="fill:#000000; fill-rule:nonzero;stroke:none;" d="M11.2344 9.96875 L11.2344 18 L13.4688 18 L13.4688 0 L11.2344 0 L11.2344 8 L2.23438 8 L2.23438 0 L0 0 L0 18 L2.23438 18 L2.23438 9.96875 L11.2344 9.96875 Z" transform="translate(189.618, 99.25)"/>
   <path style="fill:#000000; fill-rule:nonzero;stroke:none;" d="M0 1.7 L0 0 L29.85 0 L30.75 0.85 L29.85 1.7 " transform="translate(205.284, 106.95)"/>
   <path style="fill:#000000; fill-rule:nonzero;stroke:none;" d="M11.2344 9.96875 L11.2344 18 L13.4688 18 L13.4688 0 L11.2344 0 L11.2344 8 L2.23438 8 L2.23438 0 L0 0 L0 18 L2.23438 18 L2.23438 9.96875 L11.2344 9.96875 Z" transform="translate(269.018, 138.9)"/>
   <path style="fill:#000000; fill-rule:nonzero;stroke:none;" d="M30.65 0 L30.65 1.7 L0.85 1.7 L0 0.85 L0.85 0 " transform="translate(236.034, 146.6)"/>
   <g style="fill:none; stroke:none" id="Gruppe8" transform="translate(171.6, 138.9) scale(1, 1)">
    <path style="fill:#000000; fill-rule:nonzero;stroke:none;" d="M11.2344 9.96875 L11.2344 18 L13.4688 18 L13.4688 0 L11.2344 0 L11.2344 8 L2.23438 8 L2.23438 0 L0 0 L0 18 L2.23438 18 L2.23438 9.96875 L11.2344 9.96875 Z" transform="translate(0, 0)"/>
    <path style="fill:#000000; fill-rule:nonzero;stroke:none;" d="M8.42188 0 C3.40625 0 0 3.67188 0 9.01562 C0 14.375 3.375 18 8.45312 18 C10.5781 18 12.4531 17.3594 13.875 16.1562 C15.7656 14.5938 16.8906 11.9375 16.8906 9.15625 C16.8906 3.64062 13.5625 0 8.42188 0 Z M8.42188 1.96875 C12.2188 1.96875 14.6562 4.76562 14.6562 9.10938 C14.6562 13.2344 12.1406 16.0469 8.45312 16.0469 C4.70312 16.0469 2.23438 13.2344 2.23438 9.01562 C2.23438 4.79688 4.70312 1.96875 8.42188 1.96875 Z" transform="translate(16.2499, 0)"/>
   </g>
   <path style="fill:#000000; fill-rule:nonzero;stroke:none;" d="M0 1.7 L0 0 L28.35 0 L29.25 0.85 L28.35 1.7 " transform="translate(206.784, 146.6)"/>
   <path style="fill:#000000; fill-rule:nonzero;stroke:none;" d="M1.75 38.85 L0.9 39.7 L0 38.85 L0 0.85 L0.9 0 L1.75 0.85 " transform="translate(235.134, 147.45)"/>
   <path style="fill:#000000; fill-rule:nonzero;stroke:none;" d="M11.2344 9.96875 L11.2344 18 L13.4688 18 L13.4688 0 L11.2344 0 L11.2344 8 L2.23438 8 L2.23438 0 L0 0 L0 18 L2.23438 18 L2.23438 9.96875 L11.2344 9.96875 Z" transform="translate(269.018, 178.6)"/>
   <path style="fill:#000000; fill-rule:nonzero;stroke:none;" d="M30.65 0 L30.65 1.7 L0.85 1.7 L0 0.85 L0.85 0 " transform="translate(236.034, 186.3)"/>
   <g style="fill:none; stroke:none" id="Gruppe9" transform="translate(171.6, 178.6) scale(1, 1)">
    <path style="fill:#000000; fill-rule:nonzero;stroke:none;" d="M11.2344 9.96875 L11.2344 18 L13.4688 18 L13.4688 0 L11.2344 0 L11.2344 8 L2.23438 8 L2.23438 0 L0 0 L0 18 L2.23438 18 L2.23438 9.96875 L11.2344 9.96875 Z" transform="translate(0, 0)"/>
    <path style="fill:#000000; fill-rule:nonzero;stroke:none;" d="M8.42188 0 C3.40625 0 0 3.67188 0 9.01562 C0 14.375 3.375 18 8.45312 18 C10.5781 18 12.4531 17.3594 13.875 16.1562 C15.7656 14.5938 16.8906 11.9375 16.8906 9.15625 C16.8906 3.64062 13.5625 0 8.42188 0 Z M8.42188 1.96875 C12.2188 1.96875 14.6562 4.76562 14.6562 9.10938 C14.6562 13.2344 12.1406 16.0469 8.45312 16.0469 C4.70312 16.0469 2.23438 13.2344 2.23438 9.01562 C2.23438 4.79688 4.70312 1.96875 8.42188 1.96875 Z" transform="translate(16.2499, 0)"/>
   </g>
   <path style="fill:#000000; fill-rule:nonzero;stroke:none;" d="M0 1.7 L0 0 L28.35 0 L29.25 0.85 L28.35 1.7 " transform="translate(206.784, 186.3)"/>
   <g style="fill:none; stroke:none" id="Gruppe10" transform="translate(228.474, 218.3) scale(1, 1)">
    <path style="fill:#000000; fill-rule:nonzero;stroke:none;" d="M14.7344 5.64062 C14.0469 1.875 11.8438 0 8 0 C5.64062 0 3.75 0.75 2.45312 2.1875 C0.875 3.875 0 6.3125 0 9.07812 C0 11.8906 0.890625 14.3125 2.53125 15.9688 C3.89062 17.3594 5.625 18 7.90625 18 C12.1719 18 14.5781 15.7188 15.0938 11.1875 L12.7969 11.1875 C12.6094 12.3594 12.3594 13.1562 12 13.8438 C11.2812 15.25 9.79688 16.0469 7.92188 16.0469 C4.4375 16.0469 2.23438 13.3281 2.23438 9.0625 C2.23438 4.67188 4.32812 1.96875 7.73438 1.96875 C9.15625 1.96875 10.4688 2.375 11.1875 3.0625 C11.8438 3.64062 12.2031 4.34375 12.4531 5.64062 L14.7344 5.64062 Z" transform="translate(0, 0)"/>
    <path style="fill:#000000; fill-rule:nonzero;stroke:none;" d="M11.2344 9.96875 L11.2344 18 L13.4688 18 L13.4688 0 L11.2344 0 L11.2344 8 L2.23438 8 L2.23438 0 L0 0 L0 18 L2.23438 18 L2.23438 9.96875 L11.2344 9.96875 Z" transform="translate(18.1717, 0)"/>
    <path style="fill:#000000; fill-rule:nonzero;stroke:none;" d="M8.5 11.4531 L1.78125 11.4531 C1.9375 10.375 2.51562 9.6875 4.07812 8.73438 L5.875 7.73438 C7.67188 6.73438 8.57812 5.40625 8.57812 3.8125 C8.57812 2.73438 8.15625 1.71875 7.39062 1.01562 C6.64062 0.328125 5.70312 0 4.5 0 C2.875 0 1.67188 0.578125 0.96875 1.70312 C0.515625 2.39062 0.3125 3.1875 0.28125 4.51562 L1.875 4.51562 C1.92188 3.625 2.03125 3.10938 2.25 2.67188 C2.65625 1.875 3.48438 1.39062 4.4375 1.39062 C5.875 1.39062 6.96875 2.4375 6.96875 3.84375 C6.96875 4.89062 6.375 5.78125 5.23438 6.4375 L3.57812 7.40625 C0.90625 8.9375 0.140625 10.1562 0 13 L8.5 13 L8.5 11.4531 Z" transform="translate(34.1246, 9.5)"/>
    <path style="fill:#000000; fill-rule:nonzero;stroke:none;" d="M8.42188 0 C3.40625 0 0 3.67188 0 9.01562 C0 14.375 3.375 18 8.45312 18 C10.5781 18 12.4531 17.3594 13.875 16.1562 C15.7656 14.5938 16.8906 11.9375 16.8906 9.15625 C16.8906 3.64062 13.5625 0 8.42188 0 Z M8.42188 1.96875 C12.2188 1.96875 14.6562 4.76562 14.6562 9.10938 C14.6562 13.2344 12.1406 16.0469 8.45312 16.0469 C4.70312 16.0469 2.23438 13.2344 2.23438 9.01562 C2.23438 4.79688 4.70312 1.96875 8.42188 1.96875 Z" transform="translate(44.4297, 0)"/>
    <path style="fill:#000000; fill-rule:nonzero;stroke:none;" d="M11.2344 9.96875 L11.2344 18 L13.4688 18 L13.4688 0 L11.2344 0 L11.2344 8 L2.23438 8 L2.23438 0 L0 0 L0 18 L2.23438 18 L2.23438 9.96875 L11.2344 9.96875 Z" transform="translate(64.1798, 0)"/>
   </g>
   <path style="fill:#000000; fill-rule:nonzero;stroke:none;" d="M1.75 29.4 L0 29.4 L0 0.85 L0.9 0 L1.75 0.85 " transform="translate(235.134, 187.15)"/>
  </g>
 </g>
</svg>
