<svg version="1.1" viewBox="0.0 0.0 600.0 371.0" fill="none" stroke="none" stroke-linecap="square" stroke-miterlimit="10" width="600" height="371" xmlns:xlink="http://www.w3.org/1999/xlink" xmlns="http://www.w3.org/2000/svg"><path fill="#ffffff" d="M0 0L600.0 0L600.0 371.0L0 371.0L0 0Z" fill-rule="nonzero"/><path stroke="#333333" stroke-width="1.0" stroke-linecap="butt" d="M77.5 300.5L581.5 300.5" fill-rule="nonzero"/><path stroke="#cccccc" stroke-width="1.0" stroke-linecap="butt" d="M77.5 240.5L581.5 240.5" fill-rule="nonzero"/><path stroke="#cccccc" stroke-width="1.0" stroke-linecap="butt" d="M77.5 181.5L581.5 181.5" fill-rule="nonzero"/><path stroke="#cccccc" stroke-width="1.0" stroke-linecap="butt" d="M77.5 121.5L581.5 121.5" fill-rule="nonzero"/><path stroke="#cccccc" stroke-width="1.0" stroke-linecap="butt" d="M77.5 61.5L581.5 61.5" fill-rule="nonzero"/><clipPath id="id_0"><path d="M77.55 61.916668L581.45 61.916668L581.45 300.45L77.55 300.45L77.55 61.916668Z" clip-rule="nonzero"/></clipPath><path stroke="#000000" stroke-width="2.0" stroke-linecap="butt" stroke-opacity="0.0" clip-path="url(#id_0)" d="M172.0 300.0L111.0 300.0L111.0 273.0C111.0 271.89542 111.89543 271.0 113.0 271.0L170.0 271.0C171.10457 271.0 172.0 271.89542 172.0 273.0Z" fill-rule="nonzero"/><path fill="#4285f4" clip-path="url(#id_0)" d="M172.0 300.0L111.0 300.0L111.0 273.0C111.0 271.89542 111.89543 271.0 113.0 271.0L170.0 271.0C171.10457 271.0 172.0 271.89542 172.0 273.0Z" fill-rule="nonzero"/><path stroke="#000000" stroke-width="2.0" stroke-linecap="butt" stroke-opacity="0.0" clip-path="url(#id_0)" d="M266.0 300.0L205.0 300.0L205.0 213.0C205.0 211.89543 205.89543 211.0 207.0 211.0L264.0 211.0C265.10458 211.0 266.0 211.89543 266.0 213.0Z" fill-rule="nonzero"/><path fill="#4285f4" clip-path="url(#id_0)" d="M266.0 300.0L205.0 300.0L205.0 213.0C205.0 211.89543 205.89543 211.0 207.0 211.0L264.0 211.0C265.10458 211.0 266.0 211.89543 266.0 213.0Z" fill-rule="nonzero"/><path stroke="#000000" stroke-width="2.0" stroke-linecap="butt" stroke-opacity="0.0" clip-path="url(#id_0)" d="M361.0 300.0L300.0 300.0L300.0 147.0C300.0 145.89543 300.89542 145.0 302.0 145.0L359.0 145.0C360.10458 145.0 361.0 145.89543 361.0 147.0Z" fill-rule="nonzero"/><path fill="#4285f4" clip-path="url(#id_0)" d="M361.0 300.0L300.0 300.0L300.0 147.0C300.0 145.89543 300.89542 145.0 302.0 145.0L359.0 145.0C360.10458 145.0 361.0 145.89543 361.0 147.0Z" fill-rule="nonzero"/><path stroke="#000000" stroke-width="2.0" stroke-linecap="butt" stroke-opacity="0.0" clip-path="url(#id_0)" d="M455.0 300.0L394.0 300.0L394.0 94.0C394.0 92.89543 394.89542 92.0 396.0 92.0L453.0 92.0C454.10458 92.0 455.0 92.89543 455.0 94.0Z" fill-rule="nonzero"/><path fill="#4285f4" clip-path="url(#id_0)" d="M455.0 300.0L394.0 300.0L394.0 94.0C394.0 92.89543 394.89542 92.0 396.0 92.0L453.0 92.0C454.10458 92.0 455.0 92.89543 455.0 94.0Z" fill-rule="nonzero"/><path stroke="#000000" stroke-width="2.0" stroke-linecap="butt" stroke-opacity="0.0" clip-path="url(#id_0)" d="M549.0 300.0L488.0 300.0L488.0 86.0C488.0 84.89543 488.89542 84.0 490.0 84.0L547.0 84.0C548.10455 84.0 549.0 84.89543 549.0 86.0Z" fill-rule="nonzero"/><path fill="#4285f4" clip-path="url(#id_0)" d="M549.0 300.0L488.0 300.0L488.0 86.0C488.0 84.89543 488.89542 84.0 490.0 84.0L547.0 84.0C548.10455 84.0 549.0 84.89543 549.0 86.0Z" fill-rule="nonzero"/><path fill="#000000" d="M313.54688 346.6844L314.60938 346.59064Q314.6875 347.2469 314.96875 347.65314Q315.25 348.0594 315.82812 348.325Q316.42188 348.575 317.15625 348.575Q317.79688 348.575 318.29688 348.3875Q318.79688 348.1844 319.03125 347.85626Q319.28125 347.5125 319.28125 347.1219Q319.28125 346.71564 319.04688 346.41876Q318.8125 346.10626 318.28125 345.90314Q317.92188 345.7625 316.73438 345.48126Q315.5625 345.2 315.09375 344.95Q314.46875 344.6219 314.17188 344.15314Q313.875 343.66876 313.875 343.075Q313.875 342.4344 314.23438 341.8719Q314.60938 341.29376 315.3125 341.0125Q316.03125 340.71564 316.89062 340.71564Q317.84375 340.71564 318.57812 341.02814Q319.3125 341.325 319.70312 341.9344Q320.09375 342.52814 320.125 343.27814L319.03125 343.35626Q318.9375 342.54376 318.42188 342.1375Q317.92188 341.71564 316.9375 341.71564Q315.90625 341.71564 315.4375 342.09064Q314.96875 342.46564 314.96875 342.9969Q314.96875 343.46564 315.29688 343.7625Q315.625 344.0594 317.0 344.3719Q318.39062 344.6844 318.90625 344.91876Q319.65625 345.27814 320.01562 345.8094Q320.375 346.325 320.375 347.02814Q320.375 347.71564 319.98438 348.325Q319.59375 348.91876 318.85938 349.2625Q318.125 349.59064 317.20312 349.59064Q316.03125 349.59064 315.23438 349.2625Q314.45312 348.91876 314.0 348.23126Q313.5625 347.54376 313.54688 346.6844ZM325.875 349.45L325.875 348.52814Q325.14062 349.59064 323.89062 349.59064Q323.34375 349.59064 322.85938 349.3875Q322.39062 349.16876 322.15625 348.85626Q321.92188 348.52814 321.82812 348.0594Q321.76562 347.7625 321.76562 347.075L321.76562 343.23126L322.82812 343.23126L322.82812 346.6844Q322.82812 347.4969 322.89062 347.79376Q322.98438 348.2 323.29688 348.45Q323.625 348.6844 324.10938 348.6844Q324.57812 348.6844 324.98438 348.45Q325.40625 348.2 325.57812 347.77814Q325.76562 347.35626 325.76562 346.5594L325.76562 343.23126L326.8125 343.23126L326.8125 349.45L325.875 349.45ZM328.59375 349.96564L329.625 350.1219Q329.6875 350.59064 329.98438 350.8094Q330.375 351.10626 331.04688 351.10626Q331.78125 351.10626 332.17188 350.8094Q332.57812 350.5125 332.71875 349.9969Q332.8125 349.66876 332.79688 348.6375Q332.10938 349.45 331.07812 349.45Q329.79688 349.45 329.09375 348.52814Q328.39062 347.59064 328.39062 346.3094Q328.39062 345.41876 328.70312 344.66876Q329.03125 343.90314 329.64062 343.4969Q330.25 343.09064 331.07812 343.09064Q332.1875 343.09064 332.90625 343.98126L332.90625 343.23126L333.875 343.23126L333.875 348.60626Q333.875 350.0594 333.57812 350.66876Q333.28125 351.27814 332.64062 351.6219Q332.0 351.98126 331.0625 351.98126Q329.95312 351.98126 329.26562 351.48126Q328.57812 350.98126 328.59375 349.96564ZM329.46875 346.23126Q329.46875 347.45 329.95312 348.0125Q330.4375 348.575 331.17188 348.575Q331.90625 348.575 332.39062 348.0125Q332.89062 347.45 332.89062 346.2625Q332.89062 345.1219 332.375 344.54376Q331.875 343.96564 331.15625 343.96564Q330.45312 343.96564 329.95312 344.54376Q329.46875 345.10626 329.46875 346.23126ZM339.85938 348.6844Q339.26562 349.1844 338.71875 349.3875Q338.1875 349.59064 337.5625 349.59064Q336.53125 349.59064 335.98438 349.09064Q335.4375 348.59064 335.4375 347.8094Q335.4375 347.35626 335.64062 346.98126Q335.84375 346.59064 336.1875 346.3719Q336.53125 346.1375 336.95312 346.02814Q337.25 345.9344 337.89062 345.85626Q339.15625 345.71564 339.76562 345.4969Q339.76562 345.27814 339.76562 345.23126Q339.76562 344.575 339.46875 344.3094Q339.0625 343.96564 338.26562 343.96564Q337.53125 343.96564 337.17188 344.23126Q336.8125 344.48126 336.64062 345.1375L335.60938 344.9969Q335.75 344.34064 336.07812 343.9344Q336.40625 343.52814 337.01562 343.3094Q337.625 343.09064 338.42188 343.09064Q339.21875 343.09064 339.71875 343.27814Q340.21875 343.46564 340.45312 343.7469Q340.6875 344.02814 340.78125 344.46564Q340.82812 344.73126 340.82812 345.4344L340.82812 346.84064Q340.82812 348.3094 340.89062 348.7Q340.96875 349.09064 341.17188 349.45L340.0625 349.45Q339.90625 349.1219 339.85938 348.6844ZM339.76562 346.325Q339.1875 346.5594 338.04688 346.73126Q337.39062 346.825 337.125 346.95Q336.85938 347.0594 336.70312 347.27814Q336.5625 347.4969 336.5625 347.77814Q336.5625 348.2 336.875 348.48126Q337.20312 348.7625 337.8125 348.7625Q338.42188 348.7625 338.89062 348.4969Q339.375 348.23126 339.59375 347.7625Q339.76562 347.40314 339.76562 346.71564L339.76562 346.325ZM342.78125 349.45L342.78125 343.23126L343.73438 343.23126L343.73438 344.16876Q344.09375 343.5125 344.39062 343.3094Q344.70312 343.09064 345.07812 343.09064Q345.60938 343.09064 346.15625 343.41876L345.79688 344.40314Q345.40625 344.16876 345.03125 344.16876Q344.67188 344.16876 344.39062 344.3875Q344.125 344.59064 344.01562 344.96564Q343.82812 345.52814 343.82812 346.1844L343.82812 349.45L342.78125 349.45Z" fill-rule="nonzero"/><path fill="#000000" d="M29.550013 267.19897L20.956263 263.9021L20.956263 262.68335L29.550013 259.16772L29.550013 260.44897L26.940638 261.4646L26.940638 265.04272L29.550013 265.99585L29.550013 267.19897ZM26.018763 264.7146L26.018763 261.80835L23.643763 262.69897Q22.565638 263.12085 21.862513 263.30835Q22.690638 263.48022 23.503138 263.7771L26.018763 264.7146ZM29.550013 259.38647L23.331263 259.38647L23.331263 258.44897L24.206263 258.44897Q23.737513 258.1521 23.471888 257.66772Q23.190638 257.18335 23.190638 256.55835Q23.190638 255.87083 23.471888 255.43333Q23.753138 254.98021 24.268763 254.80833Q23.190638 254.05833 23.190638 252.88646Q23.190638 251.94896 23.706263 251.46458Q24.206263 250.96458 25.284388 250.96458L29.550013 250.96458L29.550013 252.01146L25.628138 252.01146Q25.003138 252.01146 24.721888 252.12083Q24.440638 252.21458 24.268763 252.48021Q24.096888 252.74583 24.096888 253.12083Q24.096888 253.77708 24.534388 254.21458Q24.971888 254.63646 25.940638 254.63646L29.550013 254.63646L29.550013 255.69896L25.503138 255.69896Q24.800013 255.69896 24.456263 255.96458Q24.096888 256.2146 24.096888 256.79272Q24.096888 257.24585 24.331263 257.62085Q24.565638 257.99585 25.018763 258.16772Q25.471888 258.3396 26.315638 258.3396L29.550013 258.3396L29.550013 259.38647ZM26.440638 248.77708Q24.706263 248.77708 23.878138 247.82396Q23.190638 247.02708 23.190638 245.87083Q23.190638 244.58958 24.034388 243.77708Q24.862513 242.94896 26.346888 242.94896Q27.550013 242.94896 28.237513 243.30833Q28.925013 243.66771 29.315638 244.37083Q29.690638 245.05833 29.690638 245.87083Q29.690638 247.16771 28.862513 247.98021Q28.018763 248.77708 26.440638 248.77708ZM26.440638 247.69896Q27.628138 247.69896 28.221888 247.18333Q28.815638 246.65208 28.815638 245.87083Q28.815638 245.07396 28.221888 244.55833Q27.628138 244.04271 26.409388 244.04271Q25.253138 244.04271 24.659388 244.57396Q24.065638 245.08958 24.065638 245.87083Q24.065638 246.65208 24.659388 247.18333Q25.237513 247.69896 26.440638 247.69896ZM29.550013 237.30833L28.628138 237.30833Q29.690638 238.04271 29.690638 239.29271Q29.690638 239.83958 29.487513 240.32396Q29.268763 240.79271 28.956263 241.02708Q28.628138 241.26146 28.159388 241.35521Q27.862513 241.41771 27.175013 241.41771L23.331263 241.41771L23.331263 240.35521L26.784388 240.35521Q27.596888 240.35521 27.893763 240.29271Q28.300013 240.19896 28.550013 239.88646Q28.784388 239.55833 28.784388 239.07396Q28.784388 238.60521 28.550013 238.19896Q28.300013 237.77708 27.878138 237.60521Q27.456263 237.41771 26.659388 237.41771L23.331263 237.41771L23.331263 236.37083L29.550013 236.37083L29.550013 237.30833ZM29.550013 234.38646L23.331263 234.38646L23.331263 233.44896L24.206263 233.44896Q23.190638 232.76146 23.190638 231.46458Q23.190638 230.90208 23.393763 230.43333Q23.596888 229.94896 23.925013 229.71458Q24.253138 229.48021 24.690638 229.38646Q24.987513 229.33958 25.721888 229.33958L29.550013 229.33958L29.550013 230.38646L25.768763 230.38646Q25.112513 230.38646 24.800013 230.51146Q24.487513 230.63646 24.300013 230.94896Q24.096888 231.26146 24.096888 231.68333Q24.096888 232.35521 24.534388 232.85521Q24.956263 233.33958 26.143763 233.33958L29.550013 233.33958L29.550013 234.38646ZM28.612513 225.08958L29.534388 224.93333Q29.628138 225.38646 29.628138 225.73021Q29.628138 226.30833 29.456263 226.62083Q29.268763 226.93333 28.971888 227.07396Q28.675013 227.19896 27.721888 227.19896L24.143763 227.19896L24.143763 227.96458L23.331263 227.96458L23.331263 227.19896L21.784388 227.19896L21.159388 226.15208L23.331263 226.15208L23.331263 225.08958L24.143763 225.08958L24.143763 226.15208L27.784388 226.15208Q28.237513 226.15208 28.362513 226.10521Q28.487513 226.04271 28.565638 225.91771Q28.643763 225.79271 28.643763 225.55833Q28.643763 225.37083 28.612513 225.08958ZM26.440638 221.77708Q24.706263 221.77708 23.878138 220.82396Q23.190638 220.02708 23.190638 218.87083Q23.190638 217.58958 24.034388 216.77708Q24.862513 215.94896 26.346888 215.94896Q27.550013 215.94896 28.237513 216.30833Q28.925013 216.66771 29.315638 217.37083Q29.690638 218.05833 29.690638 218.87083Q29.690638 220.16771 28.862513 220.98021Q28.018763 221.77708 26.440638 221.77708ZM26.440638 220.69896Q27.628138 220.69896 28.221888 220.18333Q28.815638 219.65208 28.815638 218.87083Q28.815638 218.07396 28.221888 217.55833Q27.628138 217.04271 26.409388 217.04271Q25.253138 217.04271 24.659388 217.57396Q24.065638 218.08958 24.065638 218.87083Q24.065638 219.65208 24.659388 220.18333Q25.237513 220.69896 26.440638 220.69896ZM29.550013 214.13646L24.143763 214.13646L24.143763 215.07396L23.331263 215.07396L23.331263 214.13646L22.659388 214.13646Q22.034388 214.13646 21.737513 214.02708Q21.315638 213.87083 21.065638 213.49583Q20.815638 213.10521 20.815638 212.41771Q20.815638 211.96458 20.925013 211.43333L21.831263 211.58958Q21.784388 211.91771 21.784388 212.21458Q21.784388 212.69896 21.987513 212.90208Q22.190638 213.08958 22.753138 213.08958L23.331263 213.08958L23.331263 211.87083L24.143763 211.87083L24.143763 213.08958L29.550013 213.08958L29.550013 214.13646ZM26.175013 204.23021L25.175013 204.23021L25.159388 200.60521L28.346888 200.60521Q29.018763 201.43333 29.362513 202.32396Q29.690638 203.21458 29.690638 204.15208Q29.690638 205.41771 29.159388 206.46458Q28.612513 207.49583 27.596888 208.02708Q26.565638 208.54271 25.300013 208.54271Q24.034388 208.54271 22.956263 208.02708Q21.862513 207.49583 21.346888 206.51146Q20.815638 205.52708 20.815638 204.24583Q20.815638 203.30833 21.112513 202.55833Q21.409388 201.80833 21.956263 201.38646Q22.487513 200.94896 23.362513 200.73021L23.643763 201.74583Q22.987513 201.94896 22.612513 202.24583Q22.237513 202.52708 22.018763 203.05833Q21.784388 203.58958 21.784388 204.23021Q21.784388 205.01146 22.018763 205.58958Q22.253138 206.15208 22.643763 206.51146Q23.034388 206.85521 23.503138 207.04271Q24.300013 207.37083 25.221888 207.37083Q26.378138 207.37083 27.159388 206.98021Q27.925013 206.57396 28.300013 205.82396Q28.675013 205.07396 28.675013 204.21458Q28.675013 203.48021 28.393763 202.77708Q28.096888 202.07396 27.784388 201.71458L26.175013 201.71458L26.175013 204.23021ZM28.784388 195.32396Q29.284388 195.91771 29.487513 196.46458Q29.690638 196.99583 29.690638 197.62083Q29.690638 198.65208 29.190638 199.19896Q28.690638 199.74583 27.909388 199.74583Q27.456263 199.74583 27.081263 199.54271Q26.690638 199.33958 26.471888 198.99583Q26.237513 198.65208 26.128138 198.23021Q26.034388 197.93333 25.956263 197.29271Q25.815638 196.02708 25.596888 195.41771Q25.378138 195.41771 25.331263 195.41771Q24.675013 195.41771 24.409388 195.71458Q24.065638 196.12083 24.065638 196.91771Q24.065638 197.65208 24.331263 198.01146Q24.581263 198.37083 25.237513 198.54271L25.096888 199.57396Q24.440638 199.43333 24.034388 199.10521Q23.628138 198.77708 23.409388 198.16771Q23.190638 197.55833 23.190638 196.76146Q23.190638 195.96458 23.378138 195.46458Q23.565638 194.96458 23.846888 194.73021Q24.128138 194.49583 24.565638 194.40208Q24.831263 194.35521 25.534388 194.35521L26.940638 194.35521Q28.409388 194.35521 28.800013 194.29271Q29.190638 194.21458 29.550013 194.01146L29.550013 195.12083Q29.221888 195.27708 28.784388 195.32396ZM26.425013 195.41771Q26.659388 195.99583 26.831263 197.13646Q26.925013 197.79271 27.050013 198.05833Q27.159388 198.32396 27.378138 198.48021Q27.596888 198.62083 27.878138 198.62083Q28.300013 198.62083 28.581263 198.30833Q28.862513 197.98021 28.862513 197.37083Q28.862513 196.76146 28.596888 196.29271Q28.331263 195.80833 27.862513 195.58958Q27.503138 195.41771 26.815638 195.41771L26.425013 195.41771ZM27.690638 192.80833L27.534388 191.77708Q28.159388 191.68333 28.487513 191.29271Q28.815638 190.88646 28.815638 190.15208Q28.815638 189.43333 28.534388 189.08958Q28.237513 188.73021 27.831263 188.73021Q27.471888 188.73021 27.268763 189.04271Q27.128138 189.26146 26.909388 190.12083Q26.612513 191.27708 26.409388 191.73021Q26.190638 192.16771 25.815638 192.40208Q25.440638 192.63646 24.971888 192.63646Q24.565638 192.63646 24.206263 192.44896Q23.846888 192.26146 23.612513 191.93333Q23.440638 191.68333 23.315638 191.26146Q23.190638 190.83958 23.190638 190.33958Q23.190638 189.62083 23.409388 189.07396Q23.612513 188.51146 23.971888 188.24583Q24.331263 187.98021 24.925013 187.88646L25.065638 188.91771Q24.596888 188.98021 24.331263 189.32396Q24.050013 189.65208 24.050013 190.27708Q24.050013 190.99583 24.300013 191.30833Q24.534388 191.62083 24.862513 191.62083Q25.065638 191.62083 25.221888 191.49583Q25.393763 191.35521 25.503138 191.08958Q25.565638 190.93333 25.768763 190.15208Q26.081263 189.02708 26.268763 188.58958Q26.456263 188.15208 26.815638 187.90208Q27.175013 187.65208 27.721888 187.65208Q28.253138 187.65208 28.721888 187.96458Q29.175013 188.26146 29.440638 188.83958Q29.690638 189.41771 29.690638 190.15208Q29.690638 191.37083 29.190638 192.01146Q28.675013 192.63646 27.690638 192.80833ZM29.550013 182.26146L20.956263 182.26146L20.956263 179.01146Q20.956263 178.16771 21.034388 177.71458Q21.143763 177.07396 21.440638 176.65208Q21.737513 176.21458 22.268763 175.96458Q22.800013 175.69896 23.440638 175.69896Q24.534388 175.69896 25.300013 176.40208Q26.050013 177.08958 26.050013 178.91771L26.050013 181.12083L29.550013 181.12083L29.550013 182.26146ZM25.050013 181.12083L25.050013 178.90208Q25.050013 177.79271 24.643763 177.33958Q24.221888 176.87083 23.471888 176.87083Q22.940638 176.87083 22.565638 177.15208Q22.175013 177.41771 22.050013 177.85521Q21.971888 178.15208 21.971888 178.91771L21.971888 181.12083L25.050013 181.12083ZM29.550013 174.40208L23.331263 174.40208L23.331263 173.44896L24.268763 173.44896Q23.612513 173.08958 23.409388 172.79271Q23.190638 172.48021 23.190638 172.10521Q23.190638 171.57396 23.518763 171.02708L24.503138 171.38646Q24.268763 171.77708 24.268763 172.15208Q24.268763 172.51146 24.487513 172.79271Q24.690638 173.05833 25.065638 173.16771Q25.628138 173.35521 26.284388 173.35521L29.550013 173.35521L29.550013 174.40208ZM26.440638 170.77708Q24.706263 170.77708 23.878138 169.82396Q23.190638 169.02708 23.190638 167.87083Q23.190638 166.58958 24.034388 165.77708Q24.862513 164.94896 26.346888 164.94896Q27.550013 164.94896 28.237513 165.30833Q28.925013 165.66771 29.315638 166.37083Q29.690638 167.05833 29.690638 167.87083Q29.690638 169.16771 28.862513 169.98021Q28.018763 170.77708 26.440638 170.77708ZM26.440638 169.69896Q27.628138 169.69896 28.221888 169.18333Q28.815638 168.65208 28.815638 167.87083Q28.815638 167.07396 28.221888 166.55833Q27.628138 166.04271 26.409388 166.04271Q25.253138 166.04271 24.659388 166.57396Q24.065638 167.08958 24.065638 167.87083Q24.065638 168.65208 24.659388 169.18333Q25.237513 169.69896 26.440638 169.69896ZM29.550013 159.35521L28.768763 159.35521Q29.690638 159.94896 29.690638 161.08958Q29.690638 161.83958 29.284388 162.46458Q28.862513 163.08958 28.128138 163.43333Q27.393763 163.77708 26.440638 163.77708Q25.518763 163.77708 24.753138 163.46458Q23.987513 163.15208 23.596888 162.52708Q23.190638 161.90208 23.190638 161.13646Q23.190638 160.57396 23.425013 160.13646Q23.659388 159.69896 24.034388 159.41771L20.956263 159.41771L20.956263 158.37083L29.550013 158.37083L29.550013 159.35521ZM26.440638 162.68333Q27.643763 162.68333 28.237513 162.18333Q28.815638 161.68333 28.815638 160.99583Q28.815638 160.30833 28.253138 159.82396Q27.690638 159.33958 26.534388 159.33958Q25.253138 159.33958 24.659388 159.83958Q24.065638 160.32396 24.065638 161.04271Q24.065638 161.74583 24.643763 162.21458Q25.206263 162.68333 26.440638 162.68333ZM29.550013 152.30833L28.628138 152.30833Q29.690638 153.04271 29.690638 154.29271Q29.690638 154.83958 29.487513 155.32396Q29.268763 155.79271 28.956263 156.02708Q28.628138 156.26146 28.159388 156.35521Q27.862513 156.41771 27.175013 156.41771L23.331263 156.41771L23.331263 155.35521L26.784388 155.35521Q27.596888 155.35521 27.893763 155.29271Q28.300013 155.19896 28.550013 154.88646Q28.784388 154.55833 28.784388 154.07396Q28.784388 153.60521 28.550013 153.19896Q28.300013 152.77708 27.878138 152.60521Q27.456263 152.41771 26.659388 152.41771L23.331263 152.41771L23.331263 151.37083L29.550013 151.37083L29.550013 152.30833ZM27.268763 145.32396L27.409388 144.29271Q28.471888 144.46458 29.081263 145.16771Q29.690638 145.87083 29.690638 146.88646Q29.690638 148.16771 28.862513 148.94896Q28.018763 149.71458 26.456263 149.71458Q25.456263 149.71458 24.706263 149.38646Q23.940638 149.04271 23.565638 148.37083Q23.190638 147.68333 23.190638 146.87083Q23.190638 145.87083 23.706263 145.23021Q24.206263 144.57396 25.159388 144.38646L25.315638 145.41771Q24.690638 145.55833 24.378138 145.93333Q24.050013 146.30833 24.050013 146.83958Q24.050013 147.63646 24.628138 148.13646Q25.190638 148.63646 26.425013 148.63646Q27.690638 148.63646 28.253138 148.15208Q28.815638 147.66771 28.815638 146.90208Q28.815638 146.27708 28.440638 145.87083Q28.065638 145.44896 27.268763 145.32396ZM27.550013 139.13646L27.675013 138.04271Q28.628138 138.29271 29.159388 138.99583Q29.690638 139.69896 29.690638 140.77708Q29.690638 142.13646 28.846888 142.94896Q28.003138 143.74583 26.487513 143.74583Q24.925013 143.74583 24.065638 142.93333Q23.190638 142.12083 23.190638 140.83958Q23.190638 139.58958 24.034388 138.80833Q24.878138 138.01146 26.425013 138.01146Q26.518763 138.01146 26.706263 138.01146L26.706263 142.65208Q27.737513 142.58958 28.284388 142.07396Q28.815638 141.55833 28.815638 140.77708Q28.815638 140.19896 28.518763 139.79271Q28.206263 139.37083 27.550013 139.13646ZM25.846888 142.58958L25.846888 139.12083Q25.050013 139.18333 24.659388 139.51146Q24.050013 140.02708 24.050013 140.82396Q24.050013 141.55833 24.534388 142.05833Q25.018763 142.54271 25.846888 142.58958ZM29.550013 132.35521L28.768763 132.35521Q29.690638 132.94896 29.690638 134.08958Q29.690638 134.83958 29.284388 135.46458Q28.862513 136.08958 28.128138 136.43333Q27.393763 136.77708 26.440638 136.77708Q25.518763 136.77708 24.753138 136.46458Q23.987513 136.15208 23.596888 135.52708Q23.190638 134.90208 23.190638 134.13646Q23.190638 133.57396 23.425013 133.13646Q23.659388 132.69896 24.034388 132.41771L20.956263 132.41771L20.956263 131.37083L29.550013 131.37083L29.550013 132.35521ZM26.440638 135.68333Q27.643763 135.68333 28.237513 135.18333Q28.815638 134.68333 28.815638 133.99583Q28.815638 133.30833 28.253138 132.82396Q27.690638 132.33958 26.534388 132.33958Q25.253138 132.33958 24.659388 132.83958Q24.065638 133.32396 24.065638 134.04271Q24.065638 134.74583 24.643763 135.21458Q25.206263 135.68333 26.440638 135.68333ZM32.08126 127.370834Q30.971888 128.24583 29.503138 128.85521Q28.018763 129.44896 26.440638 129.44896Q25.050013 129.44896 23.768763 129.01146Q22.284388 128.48021 20.815638 127.370834L20.815638 126.620834Q22.034388 127.32396 22.550013 127.558334Q23.362513 127.91771 24.237513 128.12083Q25.331263 128.37083 26.440638 128.37083Q29.268763 128.37083 32.08126 126.620834L32.08126 127.370834ZM29.550013 125.38646L23.331263 125.38646L23.331263 124.44896L24.206263 124.44896Q23.737513 124.152084 23.471888 123.66771Q23.190638 123.183334 23.190638 122.558334Q23.190638 121.870834 23.471888 121.433334Q23.753138 120.98021 24.268763 120.808334Q23.190638 120.058334 23.190638 118.88646Q23.190638 117.94896 23.706263 117.464584Q24.206263 116.964584 25.284388 116.964584L29.550013 116.964584L29.550013 118.01146L25.628138 118.01146Q25.003138 118.01146 24.721888 118.120834Q24.440638 118.214584 24.268763 118.48021Q24.096888 118.745834 24.096888 119.120834Q24.096888 119.777084 24.534388 120.214584Q24.971888 120.63646 25.940638 120.63646L29.550013 120.63646L29.550013 121.69896L25.503138 121.69896Q24.800013 121.69896 24.456263 121.964584Q24.096888 122.214584 24.096888 122.79271Q24.096888 123.245834 24.331263 123.620834Q24.565638 123.995834 25.018763 124.16771Q25.471888 124.339584 26.315638 124.339584L29.550013 124.339584L29.550013 125.38646ZM29.550013 114.41771L20.956263 114.41771L20.956263 113.35521L29.550013 113.35521L29.550013 114.41771ZM32.08126 110.69896L32.08126 111.44896Q29.268763 109.69896 26.440638 109.69896Q25.346888 109.69896 24.253138 109.94896Q23.378138 110.152084 22.565638 110.51146Q22.050013 110.745834 20.815638 111.44896L20.815638 110.69896Q22.284388 109.60521 23.768763 109.07396Q25.050013 108.620834 26.440638 108.620834Q28.018763 108.620834 29.503138 109.23021Q30.971888 109.839584 32.08126 110.69896Z" fill-rule="nonzero"/><path fill="#000000" d="M65.05 300.21564Q65.05 298.6844 65.3625 297.7625Q65.675 296.825 66.28438 296.325Q66.90938 295.825 67.84688 295.825Q68.53438 295.825 69.05 296.10626Q69.58125 296.3875 69.925 296.91876Q70.26875 297.4344 70.45625 298.1844Q70.64375 298.9344 70.64375 300.21564Q70.64375 301.73126 70.33125 302.65314Q70.03438 303.575 69.40938 304.09064Q68.8 304.59064 67.84688 304.59064Q66.6125 304.59064 65.89375 303.7Q65.05 302.6375 65.05 300.21564ZM66.12813 300.21564Q66.12813 302.325 66.62813 303.02814Q67.12813 303.73126 67.84688 303.73126Q68.58125 303.73126 69.06563 303.02814Q69.56563 302.325 69.56563 300.21564Q69.56563 298.09064 69.06563 297.40314Q68.58125 296.7 67.83125 296.7Q67.1125 296.7 66.675 297.3094Q66.12813 298.09064 66.12813 300.21564Z" fill-rule="nonzero"/><path fill="#000000" d="M63.596874 243.80104L63.596874 244.81667L57.909374 244.81667Q57.909374 244.44167 58.034374 244.08229Q58.253124 243.50417 58.721874 242.94167Q59.20625 242.37917 60.1125 241.64479Q61.51875 240.48854 62.003124 239.81667Q62.503124 239.14479 62.503124 238.55104Q62.503124 237.92604 62.05 237.50417Q61.596874 237.06667 60.878124 237.06667Q60.1125 237.06667 59.659374 237.51979Q59.20625 237.97292 59.190624 238.78542L58.1125 238.67604Q58.221874 237.45729 58.940624 236.83229Q59.675 236.19167 60.909374 236.19167Q62.14375 236.19167 62.8625 236.87917Q63.58125 237.56667 63.58125 238.58229Q63.58125 239.09792 63.3625 239.59792Q63.159374 240.08229 62.659374 240.64479Q62.175 241.19167 61.05 242.14479Q60.096874 242.94167 59.815624 243.23854Q59.55 243.51979 59.378124 243.80104L63.596874 243.80104ZM65.05 240.58229Q65.05 239.05104 65.3625 238.12917Q65.675 237.19167 66.28438 236.69167Q66.90938 236.19167 67.84688 236.19167Q68.53438 236.19167 69.05 236.47292Q69.58125 236.75417 69.925 237.28542Q70.26875 237.80104 70.45625 238.55104Q70.64375 239.30104 70.64375 240.58229Q70.64375 242.09792 70.33125 243.01979Q70.03438 243.94167 69.40938 244.45729Q68.8 244.95729 67.84688 244.95729Q66.6125 244.95729 65.89375 244.06667Q65.05 243.00417 65.05 240.58229ZM66.12813 240.58229Q66.12813 242.69167 66.62813 243.39479Q67.12813 244.09792 67.84688 244.09792Q68.58125 244.09792 69.06563 243.39479Q69.56563 242.69167 69.56563 240.58229Q69.56563 238.45729 69.06563 237.76979Q68.58125 237.06667 67.83125 237.06667Q67.1125 237.06667 66.675 237.67604Q66.12813 238.45729 66.12813 240.58229Z" fill-rule="nonzero"/><path fill="#000000" d="M61.425 185.18333L61.425 183.12083L57.70625 183.12083L57.70625 182.15208L61.628124 176.58958L62.4875 176.58958L62.4875 182.15208L63.64375 182.15208L63.64375 183.12083L62.4875 183.12083L62.4875 185.18333L61.425 185.18333ZM61.425 182.15208L61.425 178.29271L58.7375 182.15208L61.425 182.15208ZM65.05 180.94896Q65.05 179.41771 65.3625 178.49583Q65.675 177.55833 66.28438 177.05833Q66.90938 176.55833 67.84688 176.55833Q68.53438 176.55833 69.05 176.83958Q69.58125 177.12083 69.925 177.65208Q70.26875 178.16771 70.45625 178.91771Q70.64375 179.66771 70.64375 180.94896Q70.64375 182.46458 70.33125 183.38646Q70.03438 184.30833 69.40938 184.82396Q68.8 185.32396 67.84688 185.32396Q66.6125 185.32396 65.89375 184.43333Q65.05 183.37083 65.05 180.94896ZM66.12813 180.94896Q66.12813 183.05833 66.62813 183.76146Q67.12813 184.46458 67.84688 184.46458Q68.58125 184.46458 69.06563 183.76146Q69.56563 183.05833 69.56563 180.94896Q69.56563 178.82396 69.06563 178.13646Q68.58125 177.43333 67.83125 177.43333Q67.1125 177.43333 66.675 178.04271Q66.12813 178.82396 66.12813 180.94896Z" fill-rule="nonzero"/><path fill="#000000" d="M63.51875 119.06563L62.471874 119.14375Q62.33125 118.51875 62.08125 118.2375Q61.64375 117.78438 61.01875 117.78438Q60.51875 117.78438 60.128124 118.06563Q59.64375 118.44063 59.346874 119.14375Q59.065624 119.83125 59.05 121.1125Q59.425 120.53438 59.971874 120.25313Q60.534374 119.97188 61.14375 119.97188Q62.190624 119.97188 62.925 120.75313Q63.675 121.53438 63.675 122.75313Q63.675 123.56563 63.315624 124.26875Q62.971874 124.95625 62.3625 125.33125Q61.753124 125.69063 60.9875 125.69063Q59.659374 125.69063 58.83125 124.72188Q58.003124 123.75313 58.003124 121.53438Q58.003124 119.03438 58.925 117.90938Q59.721874 116.925 61.08125 116.925Q62.096874 116.925 62.7375 117.50313Q63.39375 118.06563 63.51875 119.06563ZM59.221874 122.76875Q59.221874 123.31563 59.440624 123.81563Q59.675 124.3 60.08125 124.56563Q60.503124 124.83125 60.971874 124.83125Q61.628124 124.83125 62.1125 124.3Q62.596874 123.75313 62.596874 122.83125Q62.596874 121.94063 62.1125 121.425Q61.64375 120.90938 60.925 120.90938Q60.20625 120.90938 59.70625 121.425Q59.221874 121.94063 59.221874 122.76875ZM65.05 121.31563Q65.05 119.78438 65.3625 118.8625Q65.675 117.925 66.28438 117.425Q66.90938 116.925 67.84688 116.925Q68.53438 116.925 69.05 117.20625Q69.58125 117.4875 69.925 118.01875Q70.26875 118.53438 70.45625 119.28438Q70.64375 120.03438 70.64375 121.31563Q70.64375 122.83125 70.33125 123.75313Q70.03438 124.675 69.40938 125.19063Q68.8 125.69063 67.84688 125.69063Q66.6125 125.69063 65.89375 124.8Q65.05 123.7375 65.05 121.31563ZM66.12813 121.31563Q66.12813 123.425 66.62813 124.12813Q67.12813 124.83125 67.84688 124.83125Q68.58125 124.83125 69.06563 124.12813Q69.56563 123.425 69.56563 121.31563Q69.56563 119.19063 69.06563 118.50313Q68.58125 117.8 67.83125 117.8Q67.1125 117.8 66.675 118.40938Q66.12813 119.19063 66.12813 121.31563Z" fill-rule="nonzero"/><path fill="#000000" d="M59.675 61.260414Q59.01875 61.010414 58.690624 60.572914Q58.378124 60.11979 58.378124 59.510414Q58.378124 58.572914 59.05 57.93229Q59.7375 57.291664 60.846874 57.291664Q61.971874 57.291664 62.659374 57.947914Q63.346874 58.604164 63.346874 59.541664Q63.346874 60.135414 63.034374 60.572914Q62.721874 61.010414 62.08125 61.260414Q62.878124 61.510414 63.284374 62.08854Q63.690624 62.666664 63.690624 63.46354Q63.690624 64.55729 62.909374 65.30729Q62.14375 66.05729 60.8625 66.05729Q59.596874 66.05729 58.815624 65.30729Q58.034374 64.55729 58.034374 63.43229Q58.034374 62.58854 58.45625 62.02604Q58.89375 61.46354 59.675 61.260414ZM59.45625 59.46354Q59.45625 60.072914 59.846874 60.46354Q60.253124 60.854164 60.878124 60.854164Q61.4875 60.854164 61.878124 60.479164Q62.26875 60.08854 62.26875 59.52604Q62.26875 58.947914 61.8625 58.55729Q61.45625 58.15104 60.8625 58.15104Q60.253124 58.15104 59.846874 58.541664Q59.45625 58.93229 59.45625 59.46354ZM59.128124 63.43229Q59.128124 63.885414 59.33125 64.30729Q59.55 64.729164 59.971874 64.96354Q60.39375 65.197914 60.878124 65.197914Q61.628124 65.197914 62.1125 64.71354Q62.6125 64.229164 62.6125 63.479164Q62.6125 62.71354 62.1125 62.21354Q61.6125 61.71354 60.846874 61.71354Q60.096874 61.71354 59.6125 62.21354Q59.128124 62.697914 59.128124 63.43229ZM65.05 61.68229Q65.05 60.15104 65.3625 59.229164Q65.675 58.291664 66.28438 57.791664Q66.90938 57.291664 67.84688 57.291664Q68.53438 57.291664 69.05 57.572914Q69.58125 57.854164 69.925 58.385414Q70.26875 58.90104 70.45625 59.65104Q70.64375 60.40104 70.64375 61.68229Q70.64375 63.197914 70.33125 64.11979Q70.03438 65.041664 69.40938 65.55729Q68.8 66.05729 67.84688 66.05729Q66.6125 66.05729 65.89375 65.166664Q65.05 64.104164 65.05 61.68229ZM66.12813 61.68229Q66.12813 63.791664 66.62813 64.49479Q67.12813 65.197914 67.84688 65.197914Q68.58125 65.197914 69.06563 64.49479Q69.56563 63.791664 69.56563 61.68229Q69.56563 59.55729 69.06563 58.86979Q68.58125 58.166664 67.83125 58.166664Q67.1125 58.166664 66.675 58.77604Q66.12813 59.55729 66.12813 61.68229Z" fill-rule="nonzero"/><path fill="#000000" d="M118.67304 314.6844L119.73554 314.59064Q119.81367 315.2469 120.09492 315.65314Q120.37617 316.0594 120.95429 316.325Q121.54804 316.575 122.28242 316.575Q122.92304 316.575 123.42304 316.3875Q123.92304 316.1844 124.15742 315.85626Q124.40742 315.5125 124.40742 315.1219Q124.40742 314.71564 124.17304 314.41876Q123.93867 314.10626 123.40742 313.90314Q123.04804 313.7625 121.86054 313.48126Q120.68867 313.2 120.21992 312.95Q119.59492 312.6219 119.29804 312.15314Q119.00117 311.66876 119.00117 311.075Q119.00117 310.4344 119.36054 309.8719Q119.73554 309.29376 120.43867 309.0125Q121.15742 308.71564 122.01679 308.71564Q122.96992 308.71564 123.70429 309.02814Q124.43867 309.325 124.82929 309.9344Q125.21992 310.52814 125.25117 311.27814L124.15742 311.35626Q124.06367 310.54376 123.54804 310.1375Q123.04804 309.71564 122.06367 309.71564Q121.03242 309.71564 120.56367 310.09064Q120.09492 310.46564 120.09492 310.9969Q120.09492 311.46564 120.42304 311.7625Q120.75117 312.0594 122.12617 312.3719Q123.51679 312.6844 124.03242 312.91876Q124.78242 313.27814 125.14179 313.8094Q125.50117 314.325 125.50117 315.02814Q125.50117 315.71564 125.11054 316.325Q124.71992 316.91876 123.98554 317.2625Q123.25117 317.59064 122.32929 317.59064Q121.15742 317.59064 120.36054 317.2625Q119.57929 316.91876 119.12617 316.23126Q118.68867 315.54376 118.67304 314.6844ZM131.00116 317.45L131.00116 316.52814Q130.26678 317.59064 129.01678 317.59064Q128.46991 317.59064 127.98554 317.3875Q127.51679 317.16876 127.28242 316.85626Q127.04804 316.52814 126.95429 316.0594Q126.89179 315.7625 126.89179 315.075L126.89179 311.23126L127.95429 311.23126L127.95429 314.6844Q127.95429 315.4969 128.01678 315.79376Q128.11053 316.2 128.42303 316.45Q128.75116 316.6844 129.23553 316.6844Q129.70428 316.6844 130.11053 316.45Q130.53241 316.2 130.70428 315.77814Q130.89178 315.35626 130.89178 314.5594L130.89178 311.23126L131.93866 311.23126L131.93866 317.45L131.00116 317.45ZM137.98553 315.16876L139.01678 315.3094Q138.84491 316.3719 138.14178 316.98126Q137.43866 317.59064 136.42303 317.59064Q135.14178 317.59064 134.36053 316.7625Q133.59491 315.91876 133.59491 314.35626Q133.59491 313.35626 133.92303 312.60626Q134.26678 311.84064 134.93866 311.46564Q135.62616 311.09064 136.43866 311.09064Q137.43866 311.09064 138.07928 311.60626Q138.73553 312.10626 138.92303 313.0594L137.89178 313.21564Q137.75116 312.59064 137.37616 312.27814Q137.00116 311.95 136.46991 311.95Q135.67303 311.95 135.17303 312.52814Q134.67303 313.09064 134.67303 314.325Q134.67303 315.59064 135.15741 316.15314Q135.64178 316.71564 136.40741 316.71564Q137.03241 316.71564 137.43866 316.34064Q137.86053 315.96564 137.98553 315.16876ZM139.90741 317.45L139.90741 311.23126L140.86053 311.23126L140.86053 312.16876Q141.21991 311.5125 141.51678 311.3094Q141.82928 311.09064 142.20428 311.09064Q142.73553 311.09064 143.28241 311.41876L142.92303 312.40314Q142.53241 312.16876 142.15741 312.16876Q141.79803 312.16876 141.51678 312.3875Q141.25116 312.59064 141.14178 312.96564Q140.95428 313.52814 140.95428 314.1844L140.95428 317.45L139.90741 317.45ZM143.53241 314.34064Q143.53241 312.60626 144.48553 311.77814Q145.28241 311.09064 146.43866 311.09064Q147.71991 311.09064 148.53241 311.9344Q149.36053 312.7625 149.36053 314.2469Q149.36053 315.45 149.00116 316.1375Q148.64178 316.825 147.93866 317.21564Q147.25116 317.59064 146.43866 317.59064Q145.14178 317.59064 144.32928 316.7625Q143.53241 315.91876 143.53241 314.34064ZM144.61053 314.34064Q144.61053 315.52814 145.12616 316.1219Q145.65741 316.71564 146.43866 316.71564Q147.23553 316.71564 147.75116 316.1219Q148.26678 315.52814 148.26678 314.3094Q148.26678 313.15314 147.73553 312.5594Q147.21991 311.96564 146.43866 311.96564Q145.65741 311.96564 145.12616 312.5594Q144.61053 313.1375 144.61053 314.34064ZM150.50116 315.59064L151.53241 315.4344Q151.62616 316.0594 152.01678 316.3875Q152.42303 316.71564 153.15741 316.71564Q153.87616 316.71564 154.21991 316.4344Q154.57928 316.1375 154.57928 315.73126Q154.57928 315.3719 154.26678 315.16876Q154.04803 315.02814 153.18866 314.8094Q152.03241 314.5125 151.57928 314.3094Q151.14178 314.09064 150.90741 313.71564Q150.67303 313.34064 150.67303 312.8719Q150.67303 312.46564 150.86053 312.10626Q151.04803 311.7469 151.37616 311.5125Q151.62616 311.34064 152.04803 311.21564Q152.46991 311.09064 152.96991 311.09064Q153.68866 311.09064 154.23553 311.3094Q154.79803 311.5125 155.06366 311.8719Q155.32928 312.23126 155.42303 312.825L154.39178 312.96564Q154.32928 312.4969 153.98553 312.23126Q153.65741 311.95 153.03241 311.95Q152.31366 311.95 152.00116 312.2Q151.68866 312.4344 151.68866 312.7625Q151.68866 312.96564 151.81366 313.1219Q151.95428 313.29376 152.21991 313.40314Q152.37616 313.46564 153.15741 313.66876Q154.28241 313.98126 154.71991 314.16876Q155.15741 314.35626 155.40741 314.71564Q155.65741 315.075 155.65741 315.6219Q155.65741 316.15314 155.34491 316.6219Q155.04803 317.075 154.46991 317.34064Q153.89178 317.59064 153.15741 317.59064Q151.93866 317.59064 151.29803 317.09064Q150.67303 316.575 150.50116 315.59064ZM162.17303 315.45L163.26678 315.575Q163.01678 316.52814 162.31366 317.0594Q161.61053 317.59064 160.53241 317.59064Q159.17303 317.59064 158.36053 316.7469Q157.56366 315.90314 157.56366 314.3875Q157.56366 312.825 158.37616 311.96564Q159.18866 311.09064 160.46991 311.09064Q161.71991 311.09064 162.50116 311.9344Q163.29803 312.77814 163.29803 314.325Q163.29803 314.41876 163.29803 314.60626L158.65741 314.60626Q158.71991 315.6375 159.23553 316.1844Q159.75116 316.71564 160.53241 316.71564Q161.11053 316.71564 161.51678 316.41876Q161.93866 316.10626 162.17303 315.45ZM158.71991 313.7469L162.18866 313.7469Q162.12616 312.95 161.79803 312.5594Q161.28241 311.95 160.48553 311.95Q159.75116 311.95 159.25116 312.4344Q158.76678 312.91876 158.71991 313.7469Z" fill-rule="nonzero"/><path fill="#000000" d="M214.7037 317.45L214.7037 308.85626L216.42245 308.85626L218.4537 314.9344Q218.73495 315.79376 218.85995 316.21564Q219.00058 315.7469 219.31308 314.84064L221.37558 308.85626L222.90683 308.85626L222.90683 317.45L221.81308 317.45L221.81308 310.2625L219.31308 317.45L218.28183 317.45L215.79745 310.1375L215.79745 317.45L214.7037 317.45ZM227.67245 316.6844Q227.0787 317.1844 226.53183 317.3875Q226.00058 317.59064 225.37558 317.59064Q224.34433 317.59064 223.79745 317.09064Q223.25058 316.59064 223.25058 315.8094Q223.25058 315.35626 223.4537 314.98126Q223.65683 314.59064 224.00058 314.3719Q224.34433 314.1375 224.7662 314.02814Q225.06308 313.9344 225.7037 313.85626Q226.96933 313.71564 227.5787 313.4969Q227.5787 313.27814 227.5787 313.23126Q227.5787 312.575 227.28183 312.3094Q226.87558 311.96564 226.0787 311.96564Q225.34433 311.96564 224.98495 312.23126Q224.62558 312.48126 224.4537 313.1375L223.42245 312.9969Q223.56308 312.34064 223.8912 311.9344Q224.21933 311.52814 224.8287 311.3094Q225.43808 311.09064 226.23495 311.09064Q227.03183 311.09064 227.53183 311.27814Q228.03183 311.46564 228.2662 311.7469Q228.50058 312.02814 228.59433 312.46564Q228.6412 312.73126 228.6412 313.4344L228.6412 314.84064Q228.6412 316.3094 228.7037 316.7Q228.78183 317.09064 228.98495 317.45L227.87558 317.45Q227.71933 317.1219 227.67245 316.6844ZM227.5787 314.325Q227.00058 314.5594 225.85995 314.73126Q225.2037 314.825 224.93808 314.95Q224.67245 315.0594 224.5162 315.27814Q224.37558 315.4969 224.37558 315.77814Q224.37558 316.2 224.68808 316.48126Q225.0162 316.7625 225.62558 316.7625Q226.23495 316.7625 226.7037 316.4969Q227.18808 316.23126 227.40683 315.7625Q227.5787 315.40314 227.5787 314.71564L227.5787 314.325ZM230.5787 317.45L230.5787 308.85626L231.6412 308.85626L231.6412 317.45L230.5787 317.45ZM235.90683 316.5125L236.06308 317.4344Q235.60995 317.52814 235.2662 317.52814Q234.68808 317.52814 234.37558 317.35626Q234.06308 317.16876 233.92245 316.8719Q233.79745 316.575 233.79745 315.6219L233.79745 312.04376L233.03183 312.04376L233.03183 311.23126L233.79745 311.23126L233.79745 309.6844L234.84433 309.0594L234.84433 311.23126L235.90683 311.23126L235.90683 312.04376L234.84433 312.04376L234.84433 315.6844Q234.84433 316.1375 234.8912 316.2625Q234.9537 316.3875 235.0787 316.46564Q235.2037 316.54376 235.43808 316.54376Q235.62558 316.54376 235.90683 316.5125ZM236.21933 314.34064Q236.21933 312.60626 237.17245 311.77814Q237.96933 311.09064 239.12558 311.09064Q240.40683 311.09064 241.21933 311.9344Q242.04745 312.7625 242.04745 314.2469Q242.04745 315.45 241.68808 316.1375Q241.3287 316.825 240.62558 317.21564Q239.93808 317.59064 239.12558 317.59064Q237.8287 317.59064 237.0162 316.7625Q236.21933 315.91876 236.21933 314.34064ZM237.29745 314.34064Q237.29745 315.52814 237.81308 316.1219Q238.34433 316.71564 239.12558 316.71564Q239.92245 316.71564 240.43808 316.1219Q240.9537 315.52814 240.9537 314.3094Q240.9537 313.15314 240.42245 312.5594Q239.90683 311.96564 239.12558 311.96564Q238.34433 311.96564 237.81308 312.5594Q237.29745 313.1375 237.29745 314.34064ZM243.18808 315.59064L244.21933 315.4344Q244.31308 316.0594 244.7037 316.3875Q245.10995 316.71564 245.84433 316.71564Q246.56308 316.71564 246.90683 316.4344Q247.2662 316.1375 247.2662 315.73126Q247.2662 315.3719 246.9537 315.16876Q246.73495 315.02814 245.87558 314.8094Q244.71933 314.5125 244.2662 314.3094Q243.8287 314.09064 243.59433 313.71564Q243.35995 313.34064 243.35995 312.8719Q243.35995 312.46564 243.54745 312.10626Q243.73495 311.7469 244.06308 311.5125Q244.31308 311.34064 244.73495 311.21564Q245.15683 311.09064 245.65683 311.09064Q246.37558 311.09064 246.92245 311.3094Q247.48495 311.5125 247.75058 311.8719Q248.0162 312.23126 248.10995 312.825L247.0787 312.96564Q247.0162 312.4969 246.67245 312.23126Q246.34433 311.95 245.71933 311.95Q245.00058 311.95 244.68808 312.2Q244.37558 312.4344 244.37558 312.7625Q244.37558 312.96564 244.50058 313.1219Q244.6412 313.29376 244.90683 313.40314Q245.06308 313.46564 245.84433 313.66876Q246.96933 313.98126 247.40683 314.16876Q247.84433 314.35626 248.09433 314.71564Q248.34433 315.075 248.34433 315.6219Q248.34433 316.15314 248.03183 316.6219Q247.73495 317.075 247.15683 317.34064Q246.5787 317.59064 245.84433 317.59064Q244.62558 317.59064 243.98495 317.09064Q243.35995 316.575 243.18808 315.59064ZM254.85995 315.45L255.9537 315.575Q255.7037 316.52814 255.00058 317.0594Q254.29745 317.59064 253.21933 317.59064Q251.85995 317.59064 251.04745 316.7469Q250.25058 315.90314 250.25058 314.3875Q250.25058 312.825 251.06308 311.96564Q251.87558 311.09064 253.15683 311.09064Q254.40683 311.09064 255.18808 311.9344Q255.98495 312.77814 255.98495 314.325Q255.98495 314.41876 255.98495 314.60626L251.34433 314.60626Q251.40683 315.6375 251.92245 316.1844Q252.43808 316.71564 253.21933 316.71564Q253.79745 316.71564 254.2037 316.41876Q254.62558 316.10626 254.85995 315.45ZM251.40683 313.7469L254.87558 313.7469Q254.81308 312.95 254.48495 312.5594Q253.96933 311.95 253.17245 311.95Q252.43808 311.95 251.93808 312.4344Q251.4537 312.91876 251.40683 313.7469Z" fill-rule="nonzero"/><path fill="#000000" d="M311.45312 314.075L311.45312 313.075L315.07812 313.0594L315.07812 316.2469Q314.25 316.91876 313.35938 317.2625Q312.46875 317.59064 311.53125 317.59064Q310.26562 317.59064 309.21875 317.0594Q308.1875 316.5125 307.65625 315.4969Q307.14062 314.46564 307.14062 313.2Q307.14062 311.9344 307.65625 310.85626Q308.1875 309.7625 309.17188 309.2469Q310.15625 308.71564 311.4375 308.71564Q312.375 308.71564 313.125 309.0125Q313.875 309.3094 314.29688 309.85626Q314.73438 310.3875 314.95312 311.2625L313.9375 311.54376Q313.73438 310.8875 313.4375 310.5125Q313.15625 310.1375 312.625 309.91876Q312.09375 309.6844 311.45312 309.6844Q310.67188 309.6844 310.09375 309.91876Q309.53125 310.15314 309.17188 310.54376Q308.82812 310.9344 308.64062 311.40314Q308.3125 312.2 308.3125 313.1219Q308.3125 314.27814 308.70312 315.0594Q309.10938 315.825 309.85938 316.2Q310.60938 316.575 311.46875 316.575Q312.20312 316.575 312.90625 316.29376Q313.60938 315.9969 313.96875 315.6844L313.96875 314.075L311.45312 314.075ZM316.26562 317.45L316.26562 308.85626L317.32812 308.85626L317.32812 317.45L316.26562 317.45ZM323.375 317.45L323.375 316.52814Q322.64062 317.59064 321.39062 317.59064Q320.84375 317.59064 320.35938 317.3875Q319.89062 317.16876 319.65625 316.85626Q319.42188 316.52814 319.32812 316.0594Q319.26562 315.7625 319.26562 315.075L319.26562 311.23126L320.32812 311.23126L320.32812 314.6844Q320.32812 315.4969 320.39062 315.79376Q320.48438 316.2 320.79688 316.45Q321.125 316.6844 321.60938 316.6844Q322.07812 316.6844 322.48438 316.45Q322.90625 316.2 323.07812 315.77814Q323.26562 315.35626 323.26562 314.5594L323.26562 311.23126L324.3125 311.23126L324.3125 317.45L323.375 317.45ZM330.35938 315.16876L331.39062 315.3094Q331.21875 316.3719 330.51562 316.98126Q329.8125 317.59064 328.79688 317.59064Q327.51562 317.59064 326.73438 316.7625Q325.96875 315.91876 325.96875 314.35626Q325.96875 313.35626 326.29688 312.60626Q326.64062 311.84064 327.3125 311.46564Q328.0 311.09064 328.8125 311.09064Q329.8125 311.09064 330.45312 311.60626Q331.10938 312.10626 331.29688 313.0594L330.26562 313.21564Q330.125 312.59064 329.75 312.27814Q329.375 311.95 328.84375 311.95Q328.04688 311.95 327.54688 312.52814Q327.04688 313.09064 327.04688 314.325Q327.04688 315.59064 327.53125 316.15314Q328.01562 316.71564 328.78125 316.71564Q329.40625 316.71564 329.8125 316.34064Q330.23438 315.96564 330.35938 315.16876ZM331.90625 314.34064Q331.90625 312.60626 332.85938 311.77814Q333.65625 311.09064 334.8125 311.09064Q336.09375 311.09064 336.90625 311.9344Q337.73438 312.7625 337.73438 314.2469Q337.73438 315.45 337.375 316.1375Q337.01562 316.825 336.3125 317.21564Q335.625 317.59064 334.8125 317.59064Q333.51562 317.59064 332.70312 316.7625Q331.90625 315.91876 331.90625 314.34064ZM332.98438 314.34064Q332.98438 315.52814 333.5 316.1219Q334.03125 316.71564 334.8125 316.71564Q335.60938 316.71564 336.125 316.1219Q336.64062 315.52814 336.64062 314.3094Q336.64062 313.15314 336.10938 312.5594Q335.59375 311.96564 334.8125 311.96564Q334.03125 311.96564 333.5 312.5594Q332.98438 313.1375 332.98438 314.34064ZM338.875 315.59064L339.90625 315.4344Q340.0 316.0594 340.39062 316.3875Q340.79688 316.71564 341.53125 316.71564Q342.25 316.71564 342.59375 316.4344Q342.95312 316.1375 342.95312 315.73126Q342.95312 315.3719 342.64062 315.16876Q342.42188 315.02814 341.5625 314.8094Q340.40625 314.5125 339.95312 314.3094Q339.51562 314.09064 339.28125 313.71564Q339.04688 313.34064 339.04688 312.8719Q339.04688 312.46564 339.23438 312.10626Q339.42188 311.7469 339.75 311.5125Q340.0 311.34064 340.42188 311.21564Q340.84375 311.09064 341.34375 311.09064Q342.0625 311.09064 342.60938 311.3094Q343.17188 311.5125 343.4375 311.8719Q343.70312 312.23126 343.79688 312.825L342.76562 312.96564Q342.70312 312.4969 342.35938 312.23126Q342.03125 311.95 341.40625 311.95Q340.6875 311.95 340.375 312.2Q340.0625 312.4344 340.0625 312.7625Q340.0625 312.96564 340.1875 313.1219Q340.32812 313.29376 340.59375 313.40314Q340.75 313.46564 341.53125 313.66876Q342.65625 313.98126 343.09375 314.16876Q343.53125 314.35626 343.78125 314.71564Q344.03125 315.075 344.03125 315.6219Q344.03125 316.15314 343.71875 316.6219Q343.42188 317.075 342.84375 317.34064Q342.26562 317.59064 341.53125 317.59064Q340.3125 317.59064 339.67188 317.09064Q339.04688 316.575 338.875 315.59064ZM350.54688 315.45L351.64062 315.575Q351.39062 316.52814 350.6875 317.0594Q349.98438 317.59064 348.90625 317.59064Q347.54688 317.59064 346.73438 316.7469Q345.9375 315.90314 345.9375 314.3875Q345.9375 312.825 346.75 311.96564Q347.5625 311.09064 348.84375 311.09064Q350.09375 311.09064 350.875 311.9344Q351.67188 312.77814 351.67188 314.325Q351.67188 314.41876 351.67188 314.60626L347.03125 314.60626Q347.09375 315.6375 347.60938 316.1844Q348.125 316.71564 348.90625 316.71564Q349.48438 316.71564 349.89062 316.41876Q350.3125 316.10626 350.54688 315.45ZM347.09375 313.7469L350.5625 313.7469Q350.5 312.95 350.17188 312.5594Q349.65625 311.95 348.85938 311.95Q348.125 311.95 347.625 312.4344Q347.14062 312.91876 347.09375 313.7469Z" fill-rule="nonzero"/><path fill="#000000" d="M400.6713 317.45L400.6713 308.85626L406.46817 308.85626L406.46817 309.8719L401.81192 309.8719L401.81192 312.52814L405.84317 312.52814L405.84317 313.54376L401.81192 313.54376L401.81192 317.45L400.6713 317.45ZM407.46817 317.45L407.46817 311.23126L408.4213 311.23126L408.4213 312.16876Q408.78067 311.5125 409.07755 311.3094Q409.39005 311.09064 409.76505 311.09064Q410.2963 311.09064 410.84317 311.41876L410.4838 312.40314Q410.09317 312.16876 409.71817 312.16876Q409.3588 312.16876 409.07755 312.3875Q408.81192 312.59064 408.70255 312.96564Q408.51505 313.52814 408.51505 314.1844L408.51505 317.45L407.46817 317.45ZM415.56192 317.45L415.56192 316.52814Q414.82755 317.59064 413.57755 317.59064Q413.03067 317.59064 412.5463 317.3875Q412.07755 317.16876 411.84317 316.85626Q411.6088 316.52814 411.51505 316.0594Q411.45255 315.7625 411.45255 315.075L411.45255 311.23126L412.51505 311.23126L412.51505 314.6844Q412.51505 315.4969 412.57755 315.79376Q412.6713 316.2 412.9838 316.45Q413.31192 316.6844 413.7963 316.6844Q414.26505 316.6844 414.6713 316.45Q415.09317 316.2 415.26505 315.77814Q415.45255 315.35626 415.45255 314.5594L415.45255 311.23126L416.49942 311.23126L416.49942 317.45L415.56192 317.45ZM422.5463 315.16876L423.57755 315.3094Q423.40567 316.3719 422.70255 316.98126Q421.99942 317.59064 420.9838 317.59064Q419.70255 317.59064 418.9213 316.7625Q418.15567 315.91876 418.15567 314.35626Q418.15567 313.35626 418.4838 312.60626Q418.82755 311.84064 419.49942 311.46564Q420.18692 311.09064 420.99942 311.09064Q421.99942 311.09064 422.64005 311.60626Q423.2963 312.10626 423.4838 313.0594L422.45255 313.21564Q422.31192 312.59064 421.93692 312.27814Q421.56192 311.95 421.03067 311.95Q420.2338 311.95 419.7338 312.52814Q419.2338 313.09064 419.2338 314.325Q419.2338 315.59064 419.71817 316.15314Q420.20255 316.71564 420.96817 316.71564Q421.59317 316.71564 421.99942 316.34064Q422.4213 315.96564 422.5463 315.16876ZM426.78067 316.5125L426.93692 317.4344Q426.4838 317.52814 426.14005 317.52814Q425.56192 317.52814 425.24942 317.35626Q424.93692 317.16876 424.7963 316.8719Q424.6713 316.575 424.6713 315.6219L424.6713 312.04376L423.90567 312.04376L423.90567 311.23126L424.6713 311.23126L424.6713 309.6844L425.71817 309.0594L425.71817 311.23126L426.78067 311.23126L426.78067 312.04376L425.71817 312.04376L425.71817 315.6844Q425.71817 316.1375 425.76505 316.2625Q425.82755 316.3875 425.95255 316.46564Q426.07755 316.54376 426.31192 316.54376Q426.49942 316.54376 426.78067 316.5125ZM427.09317 314.34064Q427.09317 312.60626 428.0463 311.77814Q428.84317 311.09064 429.99942 311.09064Q431.28067 311.09064 432.09317 311.9344Q432.9213 312.7625 432.9213 314.2469Q432.9213 315.45 432.56192 316.1375Q432.20255 316.825 431.49942 317.21564Q430.81192 317.59064 429.99942 317.59064Q428.70255 317.59064 427.89005 316.7625Q427.09317 315.91876 427.09317 314.34064ZM428.1713 314.34064Q428.1713 315.52814 428.68692 316.1219Q429.21817 316.71564 429.99942 316.71564Q430.7963 316.71564 431.31192 316.1219Q431.82755 315.52814 431.82755 314.3094Q431.82755 313.15314 431.2963 312.5594Q430.78067 311.96564 429.99942 311.96564Q429.21817 311.96564 428.68692 312.5594Q428.1713 313.1375 428.1713 314.34064ZM434.06192 315.59064L435.09317 315.4344Q435.18692 316.0594 435.57755 316.3875Q435.9838 316.71564 436.71817 316.71564Q437.43692 316.71564 437.78067 316.4344Q438.14005 316.1375 438.14005 315.73126Q438.14005 315.3719 437.82755 315.16876Q437.6088 315.02814 436.74942 314.8094Q435.59317 314.5125 435.14005 314.3094Q434.70255 314.09064 434.46817 313.71564Q434.2338 313.34064 434.2338 312.8719Q434.2338 312.46564 434.4213 312.10626Q434.6088 311.7469 434.93692 311.5125Q435.18692 311.34064 435.6088 311.21564Q436.03067 311.09064 436.53067 311.09064Q437.24942 311.09064 437.7963 311.3094Q438.3588 311.5125 438.62442 311.8719Q438.89005 312.23126 438.9838 312.825L437.95255 312.96564Q437.89005 312.4969 437.5463 312.23126Q437.21817 311.95 436.59317 311.95Q435.87442 311.95 435.56192 312.2Q435.24942 312.4344 435.24942 312.7625Q435.24942 312.96564 435.37442 313.1219Q435.51505 313.29376 435.78067 313.40314Q435.93692 313.46564 436.71817 313.66876Q437.84317 313.98126 438.28067 314.16876Q438.71817 314.35626 438.96817 314.71564Q439.21817 315.075 439.21817 315.6219Q439.21817 316.15314 438.90567 316.6219Q438.6088 317.075 438.03067 317.34064Q437.45255 317.59064 436.71817 317.59064Q435.49942 317.59064 434.8588 317.09064Q434.2338 316.575 434.06192 315.59064ZM445.7338 315.45L446.82755 315.575Q446.57755 316.52814 445.87442 317.0594Q445.1713 317.59064 444.09317 317.59064Q442.7338 317.59064 441.9213 316.7469Q441.12442 315.90314 441.12442 314.3875Q441.12442 312.825 441.93692 311.96564Q442.74942 311.09064 444.03067 311.09064Q445.28067 311.09064 446.06192 311.9344Q446.8588 312.77814 446.8588 314.325Q446.8588 314.41876 446.8588 314.60626L442.21817 314.60626Q442.28067 315.6375 442.7963 316.1844Q443.31192 316.71564 444.09317 316.71564Q444.6713 316.71564 445.07755 316.41876Q445.49942 316.10626 445.7338 315.45ZM442.28067 313.7469L445.74942 313.7469Q445.68692 312.95 445.3588 312.5594Q444.84317 311.95 444.0463 311.95Q443.31192 311.95 442.81192 312.4344Q442.32755 312.91876 442.28067 313.7469Z" fill-rule="nonzero"/><path fill="#000000" d="M494.29572 317.45L494.29572 308.85626L497.26447 308.85626Q498.26447 308.85626 498.79572 308.98126Q499.5301 309.15314 500.04572 309.59064Q500.73322 310.16876 501.06134 311.075Q501.4051 311.96564 501.4051 313.10626Q501.4051 314.09064 501.17072 314.84064Q500.95197 315.59064 500.5926 316.09064Q500.23322 316.59064 499.79572 316.8719Q499.37384 317.15314 498.7801 317.3094Q498.18634 317.45 497.4051 317.45L494.29572 317.45ZM495.43634 316.4344L497.26447 316.4344Q498.12384 316.4344 498.60822 316.27814Q499.0926 316.1219 499.37384 315.825Q499.7801 315.4344 499.99884 314.7469Q500.23322 314.0594 500.23322 313.09064Q500.23322 311.7469 499.7801 311.02814Q499.3426 310.29376 498.7176 310.04376Q498.24884 309.8719 497.24884 309.8719L495.43634 309.8719L495.43634 316.4344ZM507.42072 315.45L508.51447 315.575Q508.26447 316.52814 507.56134 317.0594Q506.85822 317.59064 505.7801 317.59064Q504.42072 317.59064 503.60822 316.7469Q502.81134 315.90314 502.81134 314.3875Q502.81134 312.825 503.62384 311.96564Q504.43634 311.09064 505.7176 311.09064Q506.9676 311.09064 507.74884 311.9344Q508.54572 312.77814 508.54572 314.325Q508.54572 314.41876 508.54572 314.60626L503.9051 314.60626Q503.9676 315.6375 504.48322 316.1844Q504.99884 316.71564 505.7801 316.71564Q506.35822 316.71564 506.76447 316.41876Q507.18634 316.10626 507.42072 315.45ZM503.9676 313.7469L507.43634 313.7469Q507.37384 312.95 507.04572 312.5594Q506.5301 311.95 505.73322 311.95Q504.99884 311.95 504.49884 312.4344Q504.01447 312.91876 503.9676 313.7469ZM509.4676 317.45L511.73322 314.21564L509.63947 311.23126L510.95197 311.23126L511.9051 312.6844Q512.1707 313.10626 512.3426 313.3875Q512.5926 312.9969 512.81134 312.7L513.8582 311.23126L515.12384 311.23126L512.9676 314.15314L515.2801 317.45L513.99884 317.45L512.7176 315.5125L512.37384 314.9969L510.73322 317.45L509.4676 317.45ZM517.4676 316.5125L517.62384 317.4344Q517.1707 317.52814 516.82697 317.52814Q516.24884 317.52814 515.93634 317.35626Q515.62384 317.16876 515.4832 316.8719Q515.3582 316.575 515.3582 315.6219L515.3582 312.04376L514.5926 312.04376L514.5926 311.23126L515.3582 311.23126L515.3582 309.6844L516.4051 309.0594L516.4051 311.23126L517.4676 311.23126L517.4676 312.04376L516.4051 312.04376L516.4051 315.6844Q516.4051 316.1375 516.45197 316.2625Q516.51447 316.3875 516.63947 316.46564Q516.76447 316.54376 516.99884 316.54376Q517.18634 316.54376 517.4676 316.5125ZM518.1551 317.45L518.1551 311.23126L519.1082 311.23126L519.1082 312.16876Q519.4676 311.5125 519.76447 311.3094Q520.07697 311.09064 520.45197 311.09064Q520.9832 311.09064 521.5301 311.41876L521.1707 312.40314Q520.7801 312.16876 520.4051 312.16876Q520.0457 312.16876 519.76447 312.3875Q519.49884 312.59064 519.38947 312.96564Q519.20197 313.52814 519.20197 314.1844L519.20197 317.45L518.1551 317.45ZM521.7801 314.34064Q521.7801 312.60626 522.7332 311.77814Q523.5301 311.09064 524.68634 311.09064Q525.9676 311.09064 526.7801 311.9344Q527.6082 312.7625 527.6082 314.2469Q527.6082 315.45 527.24884 316.1375Q526.88947 316.825 526.18634 317.21564Q525.49884 317.59064 524.68634 317.59064Q523.38947 317.59064 522.57697 316.7625Q521.7801 315.91876 521.7801 314.34064ZM522.8582 314.34064Q522.8582 315.52814 523.37384 316.1219Q523.9051 316.71564 524.68634 316.71564Q525.4832 316.71564 525.99884 316.1219Q526.51447 315.52814 526.51447 314.3094Q526.51447 313.15314 525.9832 312.5594Q525.4676 311.96564 524.68634 311.96564Q523.9051 311.96564 523.37384 312.5594Q522.8582 313.1375 522.8582 314.34064ZM528.74884 315.59064L529.7801 315.4344Q529.87384 316.0594 530.26447 316.3875Q530.6707 316.71564 531.4051 316.71564Q532.12384 316.71564 532.4676 316.4344Q532.82697 316.1375 532.82697 315.73126Q532.82697 315.3719 532.51447 315.16876Q532.2957 315.02814 531.43634 314.8094Q530.2801 314.5125 529.82697 314.3094Q529.38947 314.09064 529.1551 313.71564Q528.9207 313.34064 528.9207 312.8719Q528.9207 312.46564 529.1082 312.10626Q529.2957 311.7469 529.62384 311.5125Q529.87384 311.34064 530.2957 311.21564Q530.7176 311.09064 531.2176 311.09064Q531.93634 311.09064 532.4832 311.3094Q533.0457 311.5125 533.31134 311.8719Q533.57697 312.23126 533.6707 312.825L532.63947 312.96564Q532.57697 312.4969 532.2332 312.23126Q531.9051 311.95 531.2801 311.95Q530.56134 311.95 530.24884 312.2Q529.93634 312.4344 529.93634 312.7625Q529.93634 312.96564 530.06134 313.1219Q530.20197 313.29376 530.4676 313.40314Q530.62384 313.46564 531.4051 313.66876Q532.5301 313.98126 532.9676 314.16876Q533.4051 314.35626 533.6551 314.71564Q533.9051 315.075 533.9051 315.6219Q533.9051 316.15314 533.5926 316.6219Q533.2957 317.075 532.7176 317.34064Q532.13947 317.59064 531.4051 317.59064Q530.18634 317.59064 529.5457 317.09064Q528.9207 316.575 528.74884 315.59064ZM540.4207 315.45L541.51447 315.575Q541.26447 316.52814 540.56134 317.0594Q539.8582 317.59064 538.7801 317.59064Q537.4207 317.59064 536.6082 316.7469Q535.81134 315.90314 535.81134 314.3875Q535.81134 312.825 536.62384 311.96564Q537.43634 311.09064 538.7176 311.09064Q539.9676 311.09064 540.74884 311.9344Q541.5457 312.77814 541.5457 314.325Q541.5457 314.41876 541.5457 314.60626L536.9051 314.60626Q536.9676 315.6375 537.4832 316.1844Q537.99884 316.71564 538.7801 316.71564Q539.3582 316.71564 539.76447 316.41876Q540.18634 316.10626 540.4207 315.45ZM536.9676 313.7469L540.43634 313.7469Q540.37384 312.95 540.0457 312.5594Q539.5301 311.95 538.7332 311.95Q537.99884 311.95 537.49884 312.4344Q537.01447 312.91876 536.9676 313.7469Z" fill-rule="nonzero"/><path fill="#757575" d="M18.51875 37.55L24.01875 23.2375L26.065624 23.2375L31.925 37.55L29.76875 37.55L28.096874 33.20625L22.1125 33.20625L20.534374 37.55L18.51875 37.55ZM22.659374 31.675L27.503124 31.675L26.01875 27.70625Q25.33125 25.89375 25.003124 24.7375Q24.721874 26.1125 24.221874 27.471874L22.659374 31.675ZM32.8625 37.55L32.8625 27.175L34.440624 27.175L34.440624 28.628124Q34.925 27.878124 35.7375 27.409374Q36.55 26.940624 37.58125 26.940624Q38.7375 26.940624 39.471874 27.425Q40.20625 27.89375 40.51875 28.753124Q41.753124 26.940624 43.721874 26.940624Q45.26875 26.940624 46.096874 27.8Q46.925 28.659374 46.925 30.425L46.925 37.55L45.175 37.55L45.175 31.01875Q45.175 29.95625 45.003124 29.503124Q44.83125 29.034374 44.378124 28.753124Q43.940624 28.471874 43.33125 28.471874Q42.2375 28.471874 41.503124 29.20625Q40.784374 29.925 40.784374 31.51875L40.784374 37.55L39.034374 37.55L39.034374 30.815624Q39.034374 29.64375 38.596874 29.065624Q38.175 28.471874 37.190624 28.471874Q36.45625 28.471874 35.815624 28.8625Q35.190624 29.253124 34.909374 30.003124Q34.628124 30.753124 34.628124 32.175L34.628124 37.55L32.8625 37.55ZM48.221874 32.3625Q48.221874 29.4875 49.815624 28.096874Q51.159374 26.940624 53.08125 26.940624Q55.221874 26.940624 56.565624 28.346874Q57.925 29.753124 57.925 32.221874Q57.925 34.221874 57.33125 35.378124Q56.7375 36.51875 55.58125 37.159374Q54.440624 37.784374 53.08125 37.784374Q50.89375 37.784374 49.55 36.39375Q48.221874 34.9875 48.221874 32.3625ZM50.01875 32.3625Q50.01875 34.3625 50.878124 35.346874Q51.753124 36.33125 53.08125 36.33125Q54.39375 36.33125 55.253124 35.346874Q56.128124 34.346874 56.128124 32.3Q56.128124 30.378124 55.253124 29.39375Q54.378124 28.39375 53.08125 28.39375Q51.753124 28.39375 50.878124 29.39375Q50.01875 30.378124 50.01875 32.3625ZM66.65938 37.55L66.65938 36.01875Q65.45625 37.784374 63.378124 37.784374Q62.45625 37.784374 61.659374 37.440624Q60.8625 37.08125 60.471874 36.55Q60.096874 36.01875 59.940624 35.2375Q59.83125 34.721874 59.83125 33.596874L59.83125 27.175L61.58125 27.175L61.58125 32.925Q61.58125 34.3 61.690624 34.784374Q61.8625 35.471874 62.39375 35.878124Q62.940624 36.26875 63.721874 36.26875Q64.51875 36.26875 65.20625 35.8625Q65.90938 35.45625 66.19063 34.76875Q66.4875 34.065624 66.4875 32.7375L66.4875 27.175L68.2375 27.175L68.2375 37.55L66.65938 37.55ZM69.8625 37.55L69.8625 27.175L71.45625 27.175L71.45625 28.659374Q72.59688 26.940624 74.75313 26.940624Q75.69063 26.940624 76.47188 27.284374Q77.26875 27.6125 77.65938 28.159374Q78.05 28.70625 78.20625 29.45625Q78.3 29.95625 78.3 31.175L78.3 37.55L76.53438 37.55L76.53438 31.2375Q76.53438 30.159374 76.33125 29.628124Q76.12813 29.096874 75.59688 28.784374Q75.08125 28.471874 74.37813 28.471874Q73.25313 28.471874 72.44063 29.190624Q71.62813 29.89375 71.62813 31.878124L71.62813 37.55L69.8625 37.55ZM83.70625 35.971874L83.95625 37.534374Q83.22188 37.690624 82.62813 37.690624Q81.675 37.690624 81.14375 37.39375Q80.62813 37.08125 80.40938 36.596874Q80.19063 36.096874 80.19063 34.51875L80.19063 28.55L78.90938 28.55L78.90938 27.175L80.19063 27.175L80.19063 24.6125L81.94063 23.55L81.94063 27.175L83.70625 27.175L83.70625 28.55L81.94063 28.55L81.94063 34.6125Q81.94063 35.3625 82.03438 35.58125Q82.12813 35.784374 82.33125 35.925Q82.55 36.05 82.94063 36.05Q83.22188 36.05 83.70625 35.971874ZM91.22188 32.3625Q91.22188 29.4875 92.81563 28.096874Q94.15938 26.940624 96.08125 26.940624Q98.22188 26.940624 99.56563 28.346874Q100.925 29.753124 100.925 32.221874Q100.925 34.221874 100.33125 35.378124Q99.7375 36.51875 98.58125 37.159374Q97.44063 37.784374 96.08125 37.784374Q93.89375 37.784374 92.55 36.39375Q91.22188 34.9875 91.22188 32.3625ZM93.01875 32.3625Q93.01875 34.3625 93.87813 35.346874Q94.75313 36.33125 96.08125 36.33125Q97.39375 36.33125 98.25313 35.346874Q99.12813 34.346874 99.12813 32.3Q99.12813 30.378124 98.25313 29.39375Q97.37813 28.39375 96.08125 28.39375Q94.75313 28.39375 93.87813 29.39375Q93.01875 30.378124 93.01875 32.3625ZM103.28438 37.55L103.28438 28.55L101.7375 28.55L101.7375 27.175L103.28438 27.175L103.28438 26.08125Q103.28438 25.034374 103.47188 24.51875Q103.72188 23.83125 104.3625 23.409374Q105.00313 22.9875 106.15938 22.9875Q106.90938 22.9875 107.8 23.159374L107.53438 24.690624Q106.9875 24.596874 106.50313 24.596874Q105.70625 24.596874 105.3625 24.940624Q105.03438 25.284374 105.03438 26.221874L105.03438 27.175L107.06563 27.175L107.06563 28.55L105.03438 28.55L105.03438 37.55L103.28438 37.55ZM121.8 31.940624L121.8 30.253124L127.8625 30.2375L127.8625 35.55Q126.45625 36.675 124.97188 37.2375Q123.4875 37.8 121.925 37.8Q119.81563 37.8 118.09688 36.89375Q116.37813 35.9875 115.4875 34.284374Q114.6125 32.565624 114.6125 30.45625Q114.6125 28.3625 115.4875 26.565624Q116.3625 24.753124 118.00313 23.878124Q119.64375 22.9875 121.78438 22.9875Q123.33125 22.9875 124.58125 23.4875Q125.84688 23.9875 126.55 24.89375Q127.26875 25.784374 127.64375 27.2375L125.94063 27.70625Q125.6125 26.6125 125.12813 25.9875Q124.65938 25.3625 123.76875 24.9875Q122.87813 24.6125 121.8 24.6125Q120.4875 24.6125 119.53438 25.003124Q118.59688 25.39375 118.01875 26.05Q117.44063 26.690624 117.1125 27.45625Q116.56563 28.784374 116.56563 30.346874Q116.56563 32.253124 117.22188 33.55Q117.89375 34.83125 119.14375 35.45625Q120.40938 36.08125 121.81563 36.08125Q123.05 36.08125 124.22188 35.6125Q125.39375 35.14375 126.00313 34.596874L126.00313 31.940624L121.8 31.940624ZM137.64375 36.26875Q136.65938 37.096874 135.75313 37.440624Q134.84688 37.784374 133.81563 37.784374Q132.1125 37.784374 131.19063 36.95625Q130.26875 36.1125 130.26875 34.815624Q130.26875 34.05 130.6125 33.425Q130.97188 32.8 131.53438 32.425Q132.09688 32.034374 132.8 31.83125Q133.31563 31.70625 134.3625 31.565624Q136.4875 31.315624 137.4875 30.971874Q137.50313 30.6125 137.50313 30.503124Q137.50313 29.440624 137.00313 28.9875Q136.33125 28.39375 135.00313 28.39375Q133.75313 28.39375 133.15938 28.83125Q132.58125 29.26875 132.3 30.378124L130.58125 30.14375Q130.81563 29.034374 131.34688 28.3625Q131.87813 27.675 132.89375 27.315624Q133.90938 26.940624 135.25313 26.940624Q136.58125 26.940624 137.40938 27.253124Q138.2375 27.565624 138.62813 28.05Q139.01875 28.51875 139.175 29.2375Q139.26875 29.690624 139.26875 30.8625L139.26875 33.20625Q139.26875 35.659374 139.37813 36.315624Q139.4875 36.95625 139.83125 37.55L137.9875 37.55Q137.72188 37.003124 137.64375 36.26875ZM137.4875 32.346874Q136.53438 32.7375 134.6125 33.003124Q133.53438 33.159374 133.08125 33.3625Q132.64375 33.55 132.39375 33.925Q132.14375 34.3 132.14375 34.76875Q132.14375 35.471874 132.675 35.940624Q133.20625 36.409374 134.2375 36.409374Q135.25313 36.409374 136.03438 35.971874Q136.83125 35.51875 137.20625 34.753124Q137.4875 34.14375 137.4875 32.9875L137.4875 32.346874ZM141.15938 34.45625L142.90938 34.175Q143.05 35.221874 143.72188 35.784374Q144.39375 36.33125 145.59688 36.33125Q146.8 36.33125 147.37813 35.846874Q147.97188 35.346874 147.97188 34.690624Q147.97188 34.096874 147.45625 33.753124Q147.09688 33.51875 145.65938 33.159374Q143.72188 32.659374 142.97188 32.315624Q142.2375 31.95625 141.84688 31.33125Q141.45625 30.690624 141.45625 29.925Q141.45625 29.2375 141.76875 28.64375Q142.09688 28.05 142.64375 27.659374Q143.05 27.3625 143.75313 27.159374Q144.47188 26.940624 145.28438 26.940624Q146.50313 26.940624 147.425 27.3Q148.34688 27.64375 148.78438 28.253124Q149.22188 28.846874 149.39375 29.846874L147.675 30.08125Q147.55 29.284374 146.9875 28.846874Q146.425 28.39375 145.40938 28.39375Q144.19063 28.39375 143.675 28.8Q143.15938 29.190624 143.15938 29.721874Q143.15938 30.065624 143.37813 30.346874Q143.58125 30.628124 144.05 30.815624Q144.31563 30.909374 145.59688 31.253124Q147.47188 31.753124 148.20625 32.08125Q148.94063 32.39375 149.3625 33.003124Q149.78438 33.596874 149.78438 34.503124Q149.78438 35.378124 149.26875 36.159374Q148.75313 36.940624 147.78438 37.3625Q146.81563 37.784374 145.59688 37.784374Q143.58125 37.784374 142.51875 36.940624Q141.45625 36.096874 141.15938 34.45625ZM158.09688 37.55L158.09688 23.2375L163.4875 23.2375Q164.925 23.2375 165.675 23.3625Q166.72188 23.55 167.44063 24.05Q168.15938 24.534374 168.58125 25.425Q169.01875 26.315624 169.01875 27.378124Q169.01875 29.20625 167.84688 30.471874Q166.69063 31.721874 163.65938 31.721874L159.9875 31.721874L159.9875 37.55L158.09688 37.55ZM159.9875 30.034374L163.69063 30.034374Q165.51875 30.034374 166.28438 29.3625Q167.06563 28.675 167.06563 27.425Q167.06563 26.534374 166.6125 25.89375Q166.15938 25.253124 165.425 25.05Q164.94063 24.925 163.64375 24.925L159.9875 24.925L159.9875 30.034374ZM170.84688 37.55L170.84688 27.175L172.425 27.175L172.425 28.753124Q173.03438 27.64375 173.55 27.3Q174.06563 26.940624 174.675 26.940624Q175.56563 26.940624 176.4875 27.503124L175.87813 29.14375Q175.2375 28.753124 174.59688 28.753124Q174.01875 28.753124 173.55 29.1125Q173.09688 29.45625 172.89375 30.065624Q172.6125 31.003124 172.6125 32.1125L172.6125 37.55L170.84688 37.55ZM177.22188 32.3625Q177.22188 29.4875 178.81563 28.096874Q180.15938 26.940624 182.08125 26.940624Q184.22188 26.940624 185.56563 28.346874Q186.925 29.753124 186.925 32.221874Q186.925 34.221874 186.33125 35.378124Q185.7375 36.51875 184.58125 37.159374Q183.44063 37.784374 182.08125 37.784374Q179.89375 37.784374 178.55 36.39375Q177.22188 34.9875 177.22188 32.3625ZM179.01875 32.3625Q179.01875 34.3625 179.87813 35.346874Q180.75313 36.33125 182.08125 36.33125Q183.39375 36.33125 184.25313 35.346874Q185.12813 34.346874 185.12813 32.3Q185.12813 30.378124 184.25313 29.39375Q183.37813 28.39375 182.08125 28.39375Q180.75313 28.39375 179.87813 29.39375Q179.01875 30.378124 179.01875 32.3625ZM195.59688 37.55L195.59688 36.2375Q194.6125 37.784374 192.69063 37.784374Q191.45625 37.784374 190.40938 37.096874Q189.37813 36.409374 188.8 35.190624Q188.2375 33.971874 188.2375 32.378124Q188.2375 30.815624 188.75313 29.55Q189.26875 28.284374 190.3 27.6125Q191.34688 26.940624 192.6125 26.940624Q193.55 26.940624 194.28438 27.346874Q195.01875 27.7375 195.4875 28.3625L195.4875 23.2375L197.22188 23.2375L197.22188 37.55L195.59688 37.55ZM190.03438 32.378124Q190.03438 34.3625 190.87813 35.346874Q191.72188 36.33125 192.8625 36.33125Q194.01875 36.33125 194.81563 35.39375Q195.62813 34.45625 195.62813 32.51875Q195.62813 30.39375 194.8 29.39375Q193.9875 28.39375 192.78438 28.39375Q191.6125 28.39375 190.81563 29.3625Q190.03438 30.315624 190.03438 32.378124ZM206.65938 37.55L206.65938 36.01875Q205.45625 37.784374 203.37813 37.784374Q202.45625 37.784374 201.65938 37.440624Q200.8625 37.08125 200.47188 36.55Q200.09688 36.01875 199.94063 35.2375Q199.83125 34.721874 199.83125 33.596874L199.83125 27.175L201.58125 27.175L201.58125 32.925Q201.58125 34.3 201.69063 34.784374Q201.8625 35.471874 202.39375 35.878124Q202.94063 36.26875 203.72188 36.26875Q204.51875 36.26875 205.20625 35.8625Q205.90938 35.45625 206.19063 34.76875Q206.4875 34.065624 206.4875 32.7375L206.4875 27.175L208.2375 27.175L208.2375 37.55L206.65938 37.55ZM216.64375 33.753124L218.3625 33.971874Q218.08125 35.76875 216.90938 36.784374Q215.75313 37.784374 214.05 37.784374Q211.925 37.784374 210.62813 36.39375Q209.33125 35.003124 209.33125 32.409374Q209.33125 30.721874 209.87813 29.471874Q210.44063 28.20625 211.58125 27.58125Q212.72188 26.940624 214.06563 26.940624Q215.75313 26.940624 216.81563 27.8Q217.89375 28.659374 218.20625 30.221874L216.4875 30.4875Q216.25313 29.440624 215.62813 28.925Q215.00313 28.39375 214.12813 28.39375Q212.8 28.39375 211.97188 29.346874Q211.14375 30.3 211.14375 32.346874Q211.14375 34.440624 211.94063 35.39375Q212.7375 36.33125 214.03438 36.33125Q215.06563 36.33125 215.75313 35.70625Q216.45625 35.065624 216.64375 33.753124ZM226.97188 34.20625L228.78438 34.440624Q228.3625 36.01875 227.19063 36.909374Q226.03438 37.784374 224.22188 37.784374Q221.95625 37.784374 220.6125 36.39375Q219.28438 34.9875 219.28438 32.45625Q219.28438 29.83125 220.62813 28.39375Q221.97188 26.940624 224.12813 26.940624Q226.20625 26.940624 227.51875 28.3625Q228.84688 29.76875 228.84688 32.346874Q228.84688 32.503124 228.83125 32.815624L221.09688 32.815624Q221.19063 34.51875 222.06563 35.425Q222.94063 36.33125 224.2375 36.33125Q225.20625 36.33125 225.87813 35.83125Q226.56563 35.315624 226.97188 34.20625ZM221.19063 31.3625L226.9875 31.3625Q226.87813 30.065624 226.33125 29.409374Q225.4875 28.39375 224.14375 28.39375Q222.94063 28.39375 222.1125 29.20625Q221.28438 30.003124 221.19063 31.3625ZM237.59688 37.55L237.59688 36.2375Q236.6125 37.784374 234.69063 37.784374Q233.45625 37.784374 232.40938 37.096874Q231.37813 36.409374 230.8 35.190624Q230.2375 33.971874 230.2375 32.378124Q230.2375 30.815624 230.75313 29.55Q231.26875 28.284374 232.3 27.6125Q233.34688 26.940624 234.6125 26.940624Q235.55 26.940624 236.28438 27.346874Q237.01875 27.7375 237.4875 28.3625L237.4875 23.2375L239.22188 23.2375L239.22188 37.55L237.59688 37.55ZM232.03438 32.378124Q232.03438 34.3625 232.87813 35.346874Q233.72188 36.33125 234.8625 36.33125Q236.01875 36.33125 236.81563 35.39375Q237.62813 34.45625 237.62813 32.51875Q237.62813 30.39375 236.8 29.39375Q235.9875 28.39375 234.78438 28.39375Q233.6125 28.39375 232.81563 29.3625Q232.03438 30.315624 232.03438 32.378124ZM245.22188 41.753124Q243.76875 39.925 242.76875 37.471874Q241.76875 35.003124 241.76875 32.3625Q241.76875 30.034374 242.51875 27.909374Q243.39375 25.440624 245.22188 22.9875L246.4875 22.9875Q245.3 25.01875 244.925 25.89375Q244.33125 27.2375 243.9875 28.70625Q243.56563 30.534374 243.56563 32.378124Q243.56563 37.065624 246.4875 41.753124L245.22188 41.753124ZM248.8625 37.55L248.8625 27.175L250.44063 27.175L250.44063 28.628124Q250.925 27.878124 251.7375 27.409374Q252.55 26.940624 253.58125 26.940624Q254.7375 26.940624 255.47188 27.425Q256.20624 27.89375 256.51874 28.753124Q257.7531 26.940624 259.72186 26.940624Q261.26874 26.940624 262.09686 27.8Q262.925 28.659374 262.925 30.425L262.925 37.55L261.175 37.55L261.175 31.01875Q261.175 29.95625 261.0031 29.503124Q260.83124 29.034374 260.3781 28.753124Q259.9406 28.471874 259.33124 28.471874Q258.2375 28.471874 257.5031 29.20625Q256.78436 29.925 256.78436 31.51875L256.78436 37.55L255.03438 37.55L255.03438 30.815624Q255.03438 29.64375 254.59688 29.065624Q254.175 28.471874 253.19063 28.471874Q252.45625 28.471874 251.81563 28.8625Q251.19063 29.253124 250.90938 30.003124Q250.62813 30.753124 250.62813 32.175L250.62813 37.55L248.8625 37.55ZM264.83124 37.55L264.83124 23.2375L266.58124 23.2375L266.58124 37.55L264.83124 37.55ZM270.01874 41.753124L268.76874 41.753124Q271.675 37.065624 271.675 32.378124Q271.675 30.534374 271.26874 28.7375Q270.925 27.26875 270.33124 25.925Q269.95624 25.034374 268.76874 22.9875L270.01874 22.9875Q271.8625 25.440624 272.7375 27.909374Q273.4875 30.034374 273.4875 32.3625Q273.4875 35.003124 272.47186 37.471874Q271.47186 39.925 270.01874 41.753124ZM284.7531 37.55L280.8 27.175L282.65936 27.175L284.89374 33.39375Q285.2531 34.39375 285.55 35.471874Q285.78436 34.659374 286.20624 33.503124L288.5031 27.175L290.3156 27.175L286.39374 37.55L284.7531 37.55ZM290.15936 34.45625L291.90936 34.175Q292.05 35.221874 292.72186 35.784374Q293.39374 36.33125 294.59686 36.33125Q295.8 36.33125 296.3781 35.846874Q296.97186 35.346874 296.97186 34.690624Q296.97186 34.096874 296.45624 33.753124Q296.09686 33.51875 294.65936 33.159374Q292.72186 32.659374 291.97186 32.315624Q291.2375 31.95625 290.84686 31.33125Q290.45624 30.690624 290.45624 29.925Q290.45624 29.2375 290.76874 28.64375Q291.09686 28.05 291.64374 27.659374Q292.05 27.3625 292.7531 27.159374Q293.47186 26.940624 294.28436 26.940624Q295.5031 26.940624 296.425 27.3Q297.34686 27.64375 297.78436 28.253124Q298.22186 28.846874 298.39374 29.846874L296.675 30.08125Q296.55 29.284374 295.9875 28.846874Q295.425 28.39375 294.40936 28.39375Q293.1906 28.39375 292.675 28.8Q292.15936 29.190624 292.15936 29.721874Q292.15936 30.065624 292.3781 30.346874Q292.58124 30.628124 293.05 30.815624Q293.3156 30.909374 294.59686 31.253124Q296.47186 31.753124 297.20624 32.08125Q297.9406 32.39375 298.3625 33.003124Q298.78436 33.596874 298.78436 34.503124Q298.78436 35.378124 298.26874 36.159374Q297.7531 36.940624 296.78436 37.3625Q295.8156 37.784374 294.59686 37.784374Q292.58124 37.784374 291.51874 36.940624Q290.45624 36.096874 290.15936 34.45625ZM306.45624 32.95625L308.2375 32.8Q308.3625 33.8625 308.8156 34.55Q309.28436 35.2375 310.2531 35.675Q311.2375 36.096874 312.47186 36.096874Q313.55 36.096874 314.3781 35.784374Q315.20624 35.45625 315.6125 34.89375Q316.01874 34.33125 316.01874 33.659374Q316.01874 32.9875 315.6281 32.4875Q315.2375 31.9875 314.34686 31.64375Q313.76874 31.409374 311.78436 30.940624Q309.8156 30.471874 309.03436 30.05Q308.0031 29.51875 307.5031 28.721874Q307.0031 27.925 307.0031 26.940624Q307.0031 25.846874 307.6125 24.909374Q308.22186 23.971874 309.40936 23.4875Q310.59686 22.9875 312.03436 22.9875Q313.6281 22.9875 314.84686 23.503124Q316.0656 24.01875 316.70624 25.01875Q317.3625 26.003124 317.40936 27.26875L315.59686 27.409374Q315.45624 26.05 314.6125 25.3625Q313.76874 24.659374 312.1125 24.659374Q310.39374 24.659374 309.59686 25.3Q308.8156 25.925 308.8156 26.8Q308.8156 27.58125 309.3781 28.08125Q309.925 28.58125 312.2375 29.096874Q314.55 29.6125 315.40936 30.003124Q316.65936 30.58125 317.2531 31.471874Q317.84686 32.346874 317.84686 33.503124Q317.84686 34.64375 317.1906 35.659374Q316.53436 36.675 315.3 37.2375Q314.08124 37.8 312.55 37.8Q310.6125 37.8 309.3 37.2375Q307.9875 36.659374 307.2375 35.51875Q306.4875 34.378124 306.45624 32.95625ZM326.65936 37.55L326.65936 36.01875Q325.45624 37.784374 323.3781 37.784374Q322.45624 37.784374 321.65936 37.440624Q320.8625 37.08125 320.47186 36.55Q320.09686 36.01875 319.9406 35.2375Q319.83124 34.721874 319.83124 33.596874L319.83124 27.175L321.58124 27.175L321.58124 32.925Q321.58124 34.3 321.6906 34.784374Q321.8625 35.471874 322.39374 35.878124Q322.9406 36.26875 323.72186 36.26875Q324.51874 36.26875 325.20624 35.8625Q325.90936 35.45625 326.1906 34.76875Q326.4875 34.065624 326.4875 32.7375L326.4875 27.175L328.2375 27.175L328.2375 37.55L326.65936 37.55ZM329.55 38.409374L331.2531 38.659374Q331.3625 39.45625 331.84686 39.815624Q332.5031 40.3 333.64374 40.3Q334.8625 40.3 335.51874 39.815624Q336.1906 39.33125 336.425 38.45625Q336.5656 37.909374 336.55 36.190624Q335.39374 37.55 333.675 37.55Q331.53436 37.55 330.3625 36.003124Q329.1906 34.45625 329.1906 32.3Q329.1906 30.815624 329.72186 29.565624Q330.26874 28.315624 331.28436 27.628124Q332.3156 26.940624 333.6906 26.940624Q335.51874 26.940624 336.72186 28.425L336.72186 27.175L338.33124 27.175L338.33124 36.14375Q338.33124 38.565624 337.83124 39.565624Q337.34686 40.58125 336.26874 41.159374Q335.20624 41.753124 333.64374 41.753124Q331.8 41.753124 330.64374 40.925Q329.5031 40.096874 329.55 38.409374ZM331.0031 32.175Q331.0031 34.221874 331.8156 35.159374Q332.6281 36.096874 333.84686 36.096874Q335.05 36.096874 335.8625 35.159374Q336.6906 34.221874 336.6906 32.2375Q336.6906 30.33125 335.84686 29.3625Q335.0031 28.39375 333.8156 28.39375Q332.64374 28.39375 331.8156 29.346874Q331.0031 30.3 331.0031 32.175ZM347.64374 36.26875Q346.65936 37.096874 345.7531 37.440624Q344.84686 37.784374 343.8156 37.784374Q342.1125 37.784374 341.1906 36.95625Q340.26874 36.1125 340.26874 34.815624Q340.26874 34.05 340.6125 33.425Q340.97186 32.8 341.53436 32.425Q342.09686 32.034374 342.8 31.83125Q343.3156 31.70625 344.3625 31.565624Q346.4875 31.315624 347.4875 30.971874Q347.5031 30.6125 347.5031 30.503124Q347.5031 29.440624 347.0031 28.9875Q346.33124 28.39375 345.0031 28.39375Q343.7531 28.39375 343.15936 28.83125Q342.58124 29.26875 342.3 30.378124L340.58124 30.14375Q340.8156 29.034374 341.34686 28.3625Q341.8781 27.675 342.89374 27.315624Q343.90936 26.940624 345.2531 26.940624Q346.58124 26.940624 347.40936 27.253124Q348.2375 27.565624 348.6281 28.05Q349.01874 28.51875 349.175 29.2375Q349.26874 29.690624 349.26874 30.8625L349.26874 33.20625Q349.26874 35.659374 349.3781 36.315624Q349.4875 36.95625 349.83124 37.55L347.9875 37.55Q347.72186 37.003124 347.64374 36.26875ZM347.4875 32.346874Q346.53436 32.7375 344.6125 33.003124Q343.53436 33.159374 343.08124 33.3625Q342.64374 33.55 342.39374 33.925Q342.14374 34.3 342.14374 34.76875Q342.14374 35.471874 342.675 35.940624Q343.20624 36.409374 344.2375 36.409374Q345.2531 36.409374 346.03436 35.971874Q346.83124 35.51875 347.20624 34.753124Q347.4875 34.14375 347.4875 32.9875L347.4875 32.346874ZM351.84686 37.55L351.84686 27.175L353.425 27.175L353.425 28.753124Q354.03436 27.64375 354.55 27.3Q355.0656 26.940624 355.675 26.940624Q356.5656 26.940624 357.4875 27.503124L356.8781 29.14375Q356.2375 28.753124 355.59686 28.753124Q355.01874 28.753124 354.55 29.1125Q354.09686 29.45625 353.89374 30.065624Q353.6125 31.003124 353.6125 32.1125L353.6125 37.55L351.84686 37.55Z" fill-rule="nonzero"/></svg>